<svg xmlns="http://www.w3.org/2000/svg" width="562.441" height="222.28" fill-rule="evenodd" stroke-width="28.222" version="1.2" viewBox="0 0 15873.338 6273.2218" clip-path="url(#a)" stroke-linejoin="round"><defs><clipPath id="a"><path d="M0 0h29700v21000H0z"/></clipPath></defs><g clip-path="url(#a)" transform="translate(-7151.773 -7375.889)"><path fill="gray" d="M9778 9089c-106 0-211 105-211 211v848c0 106 105 212 211 212h1991c106 0 212-106 212-212v-848c0-106-106-211-212-211H9778zm-211 0zm2414 1271z"/><path fill="none" stroke="gray" d="M9778 9089c-106 0-211 105-211 211v848c0 106 105 212 211 212h1991c106 0 212-106 212-212v-848c0-106-106-211-212-211H9778zm-211 0zm2414 1271z"/><text><tspan font-size="423" font-weight="400" font-family="Liberation Sans, sans-serif"><tspan x="10314" y="9870"><tspan fill="gray">Draft</tspan></tspan></tspan></text><path fill="#ffe2e2" d="M9578 8889c-106 0-211 105-211 211v848c0 106 105 212 211 212h1991c106 0 212-106 212-212v-848c0-106-106-211-212-211H9578zm-211 0zm2414 1271z"/><path fill="none" stroke="#e78b8b" d="M9578 8889c-106 0-211 105-211 211v848c0 106 105 212 211 212h1991c106 0 212-106 212-212v-848c0-106-106-211-212-211H9578zm-211 0zm2414 1271z"/><text><tspan font-size="423" font-weight="400" font-family="Liberation Sans, sans-serif"><tspan x="10114" y="9670"><tspan>Draft</tspan></tspan></tspan></text><path fill="gray" d="M15414 9089c-106 0-211 105-211 211v848c0 106 105 212 211 212h1991c106 0 212-106 212-212v-848c0-106-106-211-212-211h-1991zm-211 0zm2414 1271z"/><path fill="none" stroke="gray" d="M15414 9089c-106 0-211 105-211 211v848c0 106 105 212 211 212h1991c106 0 212-106 212-212v-848c0-106-106-211-212-211h-1991zm-211 0zm2414 1271z"/><text><tspan font-size="423" font-weight="400" font-family="Liberation Sans, sans-serif"><tspan x="15631" y="9631"><tspan fill="gray">Release</tspan></tspan></tspan><tspan font-size="423" font-weight="400" font-family="Liberation Sans, sans-serif"><tspan x="16046" y="10109"><tspan fill="gray">(v1)</tspan></tspan></tspan></text><path fill="#fff7c2" d="M15214 8889c-106 0-211 105-211 211v848c0 106 105 212 211 212h1991c106 0 212-106 212-212v-848c0-106-106-211-212-211h-1991zm-211 0zm2414 1271z"/><path fill="none" stroke="#e7ca00" d="M15214 8889c-106 0-211 105-211 211v848c0 106 105 212 211 212h1991c106 0 212-106 212-212v-848c0-106-106-211-212-211h-1991zm-211 0zm2414 1271z"/><text><tspan font-size="423" font-weight="400" font-family="Liberation Sans, sans-serif"><tspan x="15431" y="9431"><tspan>Release</tspan></tspan></tspan><tspan font-size="423" font-weight="400" font-family="Liberation Sans, sans-serif"><tspan x="15846" y="9909"><tspan>(v1)</tspan></tspan></tspan></text><path fill="gray" d="M9769 12364c-106 0-211 105-211 211v848c0 106 105 212 211 212h1991c106 0 212-106 212-212v-848c0-106-106-211-212-211H9769zm-211 0zm2414 1271z"/><path fill="none" stroke="gray" d="M9769 12364c-106 0-211 105-211 211v848c0 106 105 212 211 212h1991c106 0 212-106 212-212v-848c0-106-106-211-212-211H9769zm-211 0zm2414 1271z"/><text><tspan font-size="423" font-weight="400" font-family="Liberation Sans, sans-serif"><tspan x="9914" y="13145"><tspan fill="gray">Obsolete</tspan></tspan></tspan></text><path fill="#efefef" d="M9569 12164c-106 0-211 105-211 211v848c0 106 105 212 211 212h1991c106 0 212-106 212-212v-848c0-106-106-211-212-211H9569zm-211 0zm2414 1271z"/><path fill="none" stroke="#5f5f5f" d="M9569 12164c-106 0-211 105-211 211v848c0 106 105 212 211 212h1991c106 0 212-106 212-212v-848c0-106-106-211-212-211H9569zm-211 0zm2414 1271z"/><text><tspan font-size="423" font-weight="400" font-family="Liberation Sans, sans-serif"><tspan x="9714" y="12945"><tspan>Obsolete</tspan></tspan></tspan></text><path fill="none" stroke="#0000a8" d="M9368 9270h-502v-882h1708v291"/><path fill="#0000a8" d="M10475 8682l88 199 5 6 6 2 6-2 4-6 89-199 1-3v-1l-1-5-2-4-4-2-4-1h-178l-4 1-4 2-2 4-1 5v1l1 3z"/><text><tspan font-size="423" font-weight="400" font-family="Liberation Sans, sans-serif"><tspan x="8507" y="8053"><tspan>update(prov)</tspan></tspan></tspan></text><path fill="none" stroke="#0000a8" d="M11781 9524h3013"/><path fill="#0000a8" d="M14797 9623l199-88 6-5 2-6-2-6-6-4-199-89-3-1h-1l-5 1-4 2-2 4-1 4v178l1 4 2 4 4 2 5 1h1l3-1z"/><text><tspan font-size="423" font-weight="400" font-family="Liberation Sans, sans-serif"><tspan x="12149" y="9151"><tspan>approve(prov)</tspan></tspan></tspan></text><text><tspan font-size="423" font-weight="400" font-family="Liberation Sans, sans-serif"><tspan x="10807" y="11331"><tspan>invalidate(prov)</tspan></tspan></tspan></text><path fill="none" stroke="#0000a8" d="M17458 9524h2730"/><path fill="#0000a8" d="M20191 9623l199-88 6-5 2-6-2-6-6-4-199-89-3-1h-1l-5 1-4 2-2 4-1 4v178l1 4 2 4 4 2 5 1h1l3-1z"/><path fill="none" stroke="#0000a8" d="M10574 10159v53m0 32l-1 54m0 32v53m0 32v53m-1 33v53m0 32v53m0 33l-1 53m0 32v53m0 32v54m0 32l-1 53m0 32v53m0 33v53m-1 32v53m0 33v53m0 32l-1 53m0 32v54m0 32v53m-1 32v53m0 33v53m0 32l-1 53m0 33v53m0 32v1"/><path fill="#0000a8" d="M10467 11956l87 200 5 6 6 2 6-2 4-5 90-200 1-2v-2l-1-4-2-4-4-3-4-1h-182l-4 3-2 4-1 4v2l1 2z"/><path fill="gray" d="M20808 9089c-106 0-211 105-211 211v848c0 106 105 212 211 212h1991c106 0 212-106 212-212v-848c0-106-106-211-212-211h-1991zm-211 0zm2414 1271z"/><path fill="none" stroke="gray" d="M20808 9089c-106 0-211 105-211 211v848c0 106 105 212 211 212h1991c106 0 212-106 212-212v-848c0-106-106-211-212-211h-1991zm-211 0zm2414 1271z"/><text><tspan font-size="423" font-weight="400" font-family="Liberation Sans, sans-serif"><tspan x="21025" y="9631"><tspan fill="gray">Release</tspan></tspan></tspan><tspan font-size="423" font-weight="400" font-family="Liberation Sans, sans-serif"><tspan x="21440" y="10109"><tspan fill="gray">(v2)</tspan></tspan></tspan></text><path fill="#fff7c2" d="M20608 8889c-106 0-211 105-211 211v848c0 106 105 212 211 212h1991c106 0 212-106 212-212v-848c0-106-106-211-212-211h-1991zm-211 0zm2414 1271z"/><path fill="none" stroke="#e7ca00" d="M20608 8889c-106 0-211 105-211 211v848c0 106 105 212 211 212h1991c106 0 212-106 212-212v-848c0-106-106-211-212-211h-1991zm-211 0zm2414 1271z"/><text><tspan font-size="423" font-weight="400" font-family="Liberation Sans, sans-serif"><tspan x="20825" y="9431"><tspan>Release</tspan></tspan></tspan><tspan font-size="423" font-weight="400" font-family="Liberation Sans, sans-serif"><tspan x="21240" y="9909"><tspan>(v2)</tspan></tspan></tspan></text><text><tspan font-size="423" font-weight="400" font-family="Liberation Sans, sans-serif"><tspan x="17808" y="9159"><tspan>update(prov)</tspan></tspan></tspan></text><path fill="none" stroke="#0000a8" d="M16210 10159v53m0 32v54m0 32v53m0 32v53m0 33v53m0 32v53m0 33v53m0 32v53m0 32v54m0 32v53m0 32v53m0 33v53m0 32v53m0 33v53m0 32v53m0 32v54m0 32v53m0 32v53m0 33v53m0 32v53m0 33v53m0 32v53m0 32v54m0 32v53m0 32v53m0 33v53m0 32v53m0 33v53m0 32v53m0 33v53m0 32v53m-8 24h-53m-33 0h-53m-32 0h-53m-33 0h-53m-32 0h-53m-33 0h-53m-32 0h-53m-32 0h-53m-33 0h-53m-32 0h-53m-33 0h-53m-32 0h-53m-33 0h-53m-32 0h-53m-32 0h-54m-32 0h-53m-32 0h-53m-33 0h-53m-32 0h-53m-33 0h-53m-32 0h-53m-32 0h-54m-32 0h-53m-32 0h-53m-33 0h-53m-32 0h-53m-33 0h-53m-32 0h-53m-32 0h-54m-32 0h-53m-32 0h-53m-33 0h-53m-32 0h-53m-33 0h-53m-32 0h-53m-32 0h-54m-32 0h-53m-32 0h-53m-33 0h-53m-32 0h-53m-33 0h-53m-32 0h-53m-32 0h-54m-32 0h-53m-32 0h-53m-33 0h-53m-32 0h-53m-33 0h-53m-32 0h-53m-33 0h-33"/><path fill="#0000a8" d="M11979 12700l-199 88-6 5-2 6 2 6 6 4 199 89 3 1h1l5-1 4-2 2-4 1-4v-178l-1-4-2-4-4-2-5-1h-1l-3 1z"/><text><tspan font-size="423" font-weight="400" font-family="Liberation Sans, sans-serif"><tspan x="12608" y="13390"><tspan>invalidate(prov)</tspan></tspan></tspan></text><path fill="red" d="M21604 10967h-762v-508h1524v508h-762z"/><path fill="none" stroke="red" d="M21604 10967h-762v-508h1524v508h-762z"/><text><tspan font-size="282" font-weight="400" font-family="Liberation Sans, sans-serif"><tspan x="20933" y="10810"><tspan fill="#fff">&lt;&lt;latest&gt;&gt;</tspan></tspan></tspan></text><path fill="none" stroke="#0000a8" d="M8111 10624l755-1100h292"/><path fill="#0000a8" d="M9161 9623l199-88 6-5 2-6-2-6-6-4-199-89-3-1h-1l-5 1-4 2-2 4-1 4v178l1 4 2 4 4 2 5 1h1l3-1z"/><text><tspan font-size="423" font-weight="400" font-family="Liberation Sans, sans-serif"><tspan x="7140" y="11064"><tspan>save(prov)</tspan></tspan></tspan></text><path d="M7527 11302c-42 0-84 42-84 84v340c0 42 42 85 84 85h1229c42 0 85-43 85-85v-340c0-42-43-84-85-84H7527zm-84 0zm1398 509z"/><path fill="none" stroke="#000" d="M7527 11302c-42 0-84 42-84 84v340c0 42 42 85 84 85h1229c42 0 85-43 85-85v-340c0-42-43-84-85-84H7527zm-84 0zm1398 509z"/><text><tspan font-size="282" font-weight="400" font-family="Liberation Sans, sans-serif"><tspan x="7716" y="11653"><tspan fill="#fff">[begin]</tspan></tspan></tspan></text><path fill="#ffbf00" d="M13470 7390c180 0 318 137 318 317s-138 318-318 318-317-138-317-318 137-317 317-317zm-317 0zm636 636z"/><path fill="none" stroke="#594300" d="M13470 7390c180 0 318 137 318 317s-138 318-318 318-317-138-317-318 137-317 317-317zm-317 0zm636 636z"/><path fill="#c90" d="M13366 7556c16 0 29 24 29 54s-13 54-29 54-28-24-28-54 12-54 28-54zm-213-166zm636 636z"/><path fill="none" stroke="#594300" d="M13366 7556c16 0 29 24 29 54s-13 54-29 54-28-24-28-54 12-54 28-54zm-213-166zm636 636z"/><path fill="#c90" d="M13571 7556c16 0 29 24 29 54s-13 54-29 54-28-24-28-54 12-54 28-54zm-418-166zm636 636z"/><path fill="none" stroke="#594300" d="M13571 7556c16 0 29 24 29 54s-13 54-29 54-28-24-28-54 12-54 28-54zm-418-166zm636 636zm-493-209c112 118 237 118 349 0m-492-427zm636 636z"/><path fill="none" stroke="#0000a8" d="M13472 8026v501l-1-386v290"/><path fill="#0000a8" d="M13372 8434l88 199 5 6 6 2 6-2 4-6 89-199 1-3v-1l-1-5-2-4-4-2-4-1h-178l-4 1-4 2-2 4-1 5v1l1 3z"/></g></svg>