<svg xmlns="http://www.w3.org/2000/svg" width="697.946" height="357.768" fill-rule="evenodd" stroke-width="28.222" version="1.2" viewBox="0 0 19697.596 10097" clip-path="url(#a)" stroke-linejoin="round"><defs><clipPath id="a"><path d="M0 0h29700v21000H0z"/></clipPath></defs><g clip-path="url(#a)" transform="translate(-5312.405 -1749)"><path fill="#fff" d="M23582 3254c780 0 1377 605 1377 1397s-597 1397-1377 1397-1376-605-1376-1397 596-1397 1376-1397zm-1376 0zm2754 2795z"/><path fill="none" stroke="#004359" stroke-width="102" d="M23582 3254c780 0 1377 605 1377 1397s-597 1397-1377 1397-1376-605-1376-1397 596-1397 1376-1397z"/><text><tspan font-size="423" font-weight="700" font-family="Liberation Sans, sans-serif"><tspan x="22581" y="4884"><tspan fill="#004359">RELEASE</tspan></tspan></tspan></text><text><tspan font-size="423" font-weight="700" font-family="Liberation Sans, sans-serif"><tspan x="22628" y="5385"><tspan fill="#00aee7">VERSION</tspan></tspan></tspan></text><title>132</title><path fill="#004359" d="M23760 3720h-396c-31 0-56 26-56 57v563c0 32 25 58 56 58l198-170 198 170c31 0 56-26 56-58v-563c0-31-25-57-56-57zm-93 424l-105-58-104 58 20-123-85-87 117-18 52-111 53 111 117 18-85 87 20 123z"/><path fill="#fff" d="M10660 3254c780 0 1377 605 1377 1397s-597 1397-1377 1397-1376-605-1376-1397 596-1397 1376-1397zm-1376 0zm2754 2795z"/><path fill="none" stroke="#004359" stroke-width="102" d="M10660 3254c780 0 1377 605 1377 1397s-597 1397-1377 1397-1376-605-1376-1397 596-1397 1376-1397z"/><title>Document-edit</title><g fill="#004359"><path d="M10617 3917v178h57l74-74-131-104z"/><path d="M10705 4467c-68 27-169 66-180 72-8 4-17 6-26 6-20 0-39-11-51-29-12-17-15-38-8-57 4-10 41-121 64-188l4-11 119-119h-57v-224h-266v715h535v-293l-125 125-9 3z"/><path d="M10961 4092l-69-68c-19-18-55-26-72-9l-272 270s-59 176-65 191c-4 11 11 26 21 21 17-8 184-73 184-73l272-272c18-17 19-42 1-60zm-299 311l-115 44-21-19 55-133 33 24h48v84z"/></g><text><tspan font-size="423" font-weight="700" font-family="Liberation Sans, sans-serif"><tspan x="9945" y="5189"><tspan fill="#004359">DRAFT</tspan></tspan></tspan></text><path fill="#fff" d="M10660 9001c780 0 1377 605 1377 1397s-597 1397-1377 1397-1376-605-1376-1397 596-1397 1376-1397zm-1376 0zm2754 2795z"/><path fill="none" stroke="#004359" stroke-width="102" d="M10660 9001c780 0 1377 605 1377 1397s-597 1397-1377 1397-1376-605-1376-1397 596-1397 1376-1397z"/><title>630</title><path fill="#004359" d="M10391 9891l46 460c0 16 14 30 31 30h340c17 0 30-14 30-30l46-460h-493zm271 403h-48v-317h48v317zm90 0h-48l45-317h48l-45 317zm-179 0h-48l-45-317h48l45 317zm315-536h-140v-63c0-17-21-32-39-32h-138c-18 0-43 10-43 28v63l-141 4c-18 0-33 14-33 32v51h567v-51c0-18-15-32-33-32zm-319-30c0-14 16-25 35-25h70c20 0 35 11 35 25v30h-140v-30z"/><text><tspan font-size="423" font-weight="700" font-family="Liberation Sans, sans-serif"><tspan x="9494" y="10936"><tspan fill="#004359">OBSOLETE</tspan></tspan></tspan></text><title>867</title><path fill="#004359" d="M14261 2435c-65 88-279 111-279 111s-219-22-284-109c-309 0-319 450-319 450h1205s25-452-323-452zm-57-456c0 127-99 370-222 370-122 0-222-243-222-370s100-230 222-230c123 0 222 103 222 230z"/><path fill="#fff" d="M17302 3254c780 0 1377 605 1377 1397s-597 1397-1377 1397-1376-605-1376-1397 596-1397 1376-1397zm-1376 0zm2754 2795z"/><path fill="none" stroke="#004359" stroke-width="102" d="M17302 3254c780 0 1377 605 1377 1397s-597 1397-1377 1397-1376-605-1376-1397 596-1397 1376-1397z"/><text><tspan font-size="423" font-weight="700" font-family="Liberation Sans, sans-serif"><tspan x="16301" y="4884"><tspan fill="#004359">RELEASE</tspan></tspan></tspan></text><text><tspan font-size="423" font-weight="700" font-family="Liberation Sans, sans-serif"><tspan x="16348" y="5385"><tspan fill="#00aee7">VERSION</tspan></tspan></tspan></text><title>132</title><path fill="#004359" d="M17480 3720h-396c-31 0-56 26-56 57v563c0 32 25 58 56 58l198-170 198 170c31 0 56-26 56-58v-563c0-31-25-57-56-57zm-93 424l-105-58-104 58 20-123-85-87 117-18 52-111 53 111 117 18-85 87 20 123z"/><text><tspan font-size="423" font-weight="700" font-family="Liberation Sans, sans-serif"><tspan x="5891" y="6858"><tspan fill="#004359">SAVE(PROV)</tspan></tspan></tspan></text><path fill="none" stroke="#425459" stroke-width="51" d="M7194 6348v-500l1539-1197h263"/><path fill="#425459" d="M8999 4788l275-122 8-6 3-8-3-10-7-5-276-123-4-1h-2l-6 1-5 4-4 4-1 6v246l1 6 4 5 5 3 6 1h2l4-1z"/><path fill="none" stroke="#425459" stroke-width="51" d="M12038 4651h3600"/><path fill="#425459" d="M15641 4788l275-122 8-6 3-8-3-10-7-5-276-123-4-1h-2l-6 1-5 4-4 4-1 6v246l1 6 4 5 5 3 6 1h2l4-1z"/><path fill="none" stroke="#425459" stroke-width="51" d="M13951 2930l-6 608"/><path fill="#425459" d="M13808 3540l120 275 5 9 8 3 10-3 5-7 126-275 1-3v-2l-1-6-4-6-4-3-6-2-246-2-6 1-5 3-3 6-1 6v2l1 4z"/><path fill="none" stroke="#425459" stroke-width="51" d="M18680 4651h3238"/><path fill="#425459" d="M21921 4788l275-122 8-6 3-8-3-10-7-5-276-123-4-1h-2l-6 1-5 4-4 4-1 6v246l1 6 4 5 5 3 6 1h2l4-1z"/><text><tspan font-size="423" font-weight="700" font-family="Liberation Sans, sans-serif"><tspan x="12172" y="4337"><tspan fill="#004359">APPROVE(PROV)</tspan></tspan></tspan></text><text><tspan font-size="423" font-weight="700" font-family="Liberation Sans, sans-serif"><tspan x="18872" y="4338"><tspan fill="#004359">UPDATE(PROV)</tspan></tspan></tspan></text><path fill="none" stroke="#425459" stroke-width="51" d="M10661 6048v100m0 101v100m0 101v100m0 101v100m0 101v100m0 101v100m0 101v100m0 101v100m0 101v100m0 100v101m0 100v101m0 100v101m0 100v101m0 100v52"/><path fill="#425459" d="M10524 8715l122 275 6 8 8 3 10-3 5-7 123-276 1-4v-2l-1-6-4-5-4-4-6-1h-246l-6 1-5 4-3 5-1 6v2l1 4z"/><path fill="none" stroke="#425459" stroke-width="51" d="M17303 6048v100m0 101v100m0 101v100m0 101v100m0 101v100m0 101v100m0 101v100m0 101v100m0 101v100m0 100v101m0 100v101m0 100v101m0 100v101m0 100v101m0 100v101m0 100v101m0 100v101m0 100v100m0 101v100m0 101v100m0 101v100m0 101v100m-71 30h-100m-101 0h-100m-101 0h-100m-100 0h-101m-100 0h-101m-100 0h-101m-100 0h-101m-100 0h-101m-100 0h-101m-100 0h-101m-100 0h-101m-100 0h-100m-101 0h-100m-101 0h-100m-101 0h-100m-101 0h-100m-101 0h-100m-101 0h-100m-101 0h-100m-101 0h-100m-100 0h-101m-100 0h-101m-100 0h-101m-100 0h-101m-100 0h-42"/><path fill="#425459" d="M12365 10261l-275 122-8 6-3 8 3 10 7 5 276 123 4 1h2l6-1 5-4 4-4 1-6v-246l-1-6-4-5-5-3-6-1h-2l-4 1z"/><text><tspan font-size="423" font-weight="700" font-family="Liberation Sans, sans-serif"><tspan x="10918" y="7670"><tspan fill="#004359">INVALIDATE(PROV)</tspan></tspan></tspan></text><text><tspan font-size="423" font-weight="700" font-family="Liberation Sans, sans-serif"><tspan x="17606" y="8369"><tspan fill="#004359">INVALIDATE(PROV)</tspan></tspan></tspan></text><path fill="none" stroke="#425459" stroke-width="51" d="M9285 4651h-552V2703h1928v262"/><path fill="#425459" d="M10524 2968l122 275 6 8 8 3 10-3 5-7 123-276 1-4v-2l-1-6-4-5-4-4-6-1h-246l-6 1-5 4-3 5-1 6v2l1 4z"/><text><tspan font-size="423" font-weight="700" font-family="Liberation Sans, sans-serif"><tspan x="5287" y="3823"><tspan fill="#004359">UPDATE(PROV)</tspan></tspan></tspan></text></g></svg>