<svg xmlns="http://www.w3.org/2000/svg" width="797.705" height="340.689" fill-rule="evenodd" stroke-width="28.222" version="1.2" viewBox="0 0 22513 9614.9997" clip-path="url(#a)" stroke-linejoin="round"><defs><clipPath id="a"><path d="M0 0h29700v21000H0z"/></clipPath></defs><g clip-path="url(#a)" transform="translate(-3593 -2231)"><path fill="#fff" d="M4558 5778c518 0 915 396 915 914s-397 915-915 915-914-397-914-915 396-914 914-914zm-914 0zm1830 1830z"/><path fill="none" stroke="#004359" stroke-width="102" d="M4558 5778c518 0 915 396 915 914s-397 915-915 915-914-397-914-915 396-914 914-914z"/><title>633</title><path fill="#004359" d="M5094 6136H4094c-35 0-64 28-64 64v707c0 36 29 64 64 64h1000c36 0 65-28 65-64v-707c0-36-29-64-65-64zm-925 653v-477c0-26 20-48 45-48h761c25 0 45 22 45 48v477c0 26-20 48-45 48h-761c-25 0-45-22-45-48zm810 331h-320v-143h-132v143h-315c-20 0-36 56-36 84s16 44 36 44h767c19 0 36-16 36-44s-17-84-36-84z"/><path fill="#fff" d="M13813 5298V3288l1837-1006 1838 1006v2010l-1838 1005-1837-1005zm0 1005zm3675-4021z"/><path fill="none" stroke="#00aee7" stroke-width="102" d="M13813 5298V3288l1837-1006 1838 1006v2010l-1838 1005-1837-1005z"/><path fill="#00aee7" d="M15653 2356l1842 919-1842 920-1841-920 1841-919zm-1841 0zm3684 1839z"/><path fill="none" stroke="#00aee7" stroke-width="102" d="M15653 2356l1842 919-1842 920-1841-920 1841-919z"/><text><tspan font-size="423" font-weight="700" font-family="Liberation Sans, sans-serif"><tspan x="14615" y="4778"><tspan fill="#004359">SECURITY</tspan></tspan></tspan></text><text><tspan font-size="423" font-weight="700" font-family="Liberation Sans, sans-serif"><tspan x="14114" y="5279"><tspan fill="#00aee7">MANAGEMENT</tspan></tspan></tspan></text><title>178</title><g fill="#004359"><path d="M15938 2770c0 144-112 420-251 420-138 0-250-276-250-420s112-260 250-260c139 0 251 116 251 260zm-162 744l205-207 109 114 141-142c-54-56-120-86-229-86-73 99-316 125-316 125s-248-25-322-123c-351 0-361 507-361 507h952l-179-188z"/><path d="M16295 3343l-204 204-121-121-80 79 201 201 284-283-80-80z"/></g><path fill="#fff" d="M12839 3582c-123 0-245 122-245 245v983c0 123 122 246 245 246h983c123 0 246-123 246-246v-983c0-123-123-245-246-245h-983zm-245 0zm1474 1474z"/><path fill="none" stroke="#004359" stroke-width="76" d="M12839 3582c-123 0-245 122-245 245v983c0 123 122 246 245 246h983c123 0 246-123 246-246v-983c0-123-123-245-246-245h-983z"/><text><tspan font-size="423" font-weight="700" font-family="Liberation Sans, sans-serif"><tspan x="12765" y="4214"><tspan fill="#004359">REST</tspan></tspan></tspan></text><text><tspan font-size="423" font-weight="700" font-family="Liberation Sans, sans-serif"><tspan x="12977" y="4715"><tspan fill="#00aee7">API</tspan></tspan></tspan></text><path fill="#fff" d="M17407 2464c-123 0-245 122-245 245v983c0 123 122 246 245 246h2141c123 0 246-123 246-246v-983c0-123-123-245-246-245h-2141zm-245 0zm2632 1474z"/><path fill="none" stroke="#004359" stroke-width="76" d="M17407 2464c-123 0-245 122-245 245v983c0 123 122 246 245 246h2141c123 0 246-123 246-246v-983c0-123-123-245-246-245h-2141z"/><text><tspan font-size="423" font-weight="700" font-family="Liberation Sans, sans-serif"><tspan x="17345" y="3096"><tspan fill="#004359">MONGODB</tspan></tspan></tspan></text><text><tspan font-size="423" font-weight="700" font-family="Liberation Sans, sans-serif"><tspan x="17451" y="3597"><tspan fill="#00aee7">ADAPTER</tspan></tspan></tspan></text><path fill="#fff" d="M6917 7698V5688l1837-1006 1838 1006v2010L8754 8703 6917 7698zm0 1005zm3675-4021z"/><path fill="none" stroke="#00aee7" stroke-width="102" d="M6917 7698V5688l1837-1006 1838 1006v2010L8754 8703 6917 7698z"/><path fill="#00aee7" d="M8757 4756l1842 919-1842 920-1841-920 1841-919zm-1841 0zm3684 1839z"/><path fill="none" stroke="#00aee7" stroke-width="102" d="M8757 4756l1842 919-1842 920-1841-920 1841-919z"/><text><tspan font-size="423" font-weight="700" font-family="Liberation Sans, sans-serif"><tspan x="7862" y="7155"><tspan fill="#004359">LEISHVL</tspan></tspan></tspan></text><text><tspan font-size="423" font-weight="700" font-family="Liberation Sans, sans-serif"><tspan x="7993" y="7656"><tspan fill="#00aee7">WEB UI</tspan></tspan></tspan></text><title>91</title><path fill="#004359" d="M9063 5844c-137 81-304 136-458 157-9 32-29 58-55 76 41 88 101 168 172 241 203 10 407-76 541-248 3-3 5-7 7-10-20-74-52-144-92-213-8 2-15 3-21 5-12 3-24 5-36 5-21 0-40-5-58-13zm-220-371c-52-38-106-72-162-102-20 49-68 83-125 83-10 0-19-1-29-3-33 124-50 255-41 379 62 4 111 49 123 109 136-23 280-71 400-140-15-22-23-49-23-77 0-33 12-63 32-87-53-59-112-116-175-162zm-408 363c-11-132 9-274 44-407-35-24-58-64-58-110 0-16 3-31 9-45-53-10-106-16-160-20-7 8-15 16-21 25-140 179-169 409-100 609 63 27 127 44 194 54 8-51 44-91 92-106zm801-25c-2 3-5 6-7 8 35 60 64 120 85 183 90-152 110-330 67-494-7 11-14 22-22 32-35 49-71 99-109 143 3 13 6 25 6 39 7 30 1 63-20 89zm-545-503c64 33 127 72 188 116 67 49 131 111 187 174 17-7 35-11 55-11 40 0 76 18 101 46 32-40 63-83 93-124 16-22 30-44 44-67-40-105-109-202-205-276-125-98-274-141-420-136-9 12-19 24-27 36-33 44-60 87-84 132 3 2 5 5 8 8 33 22 56 59 60 102zm-346 687c-58-8-113-20-167-39 42 86 103 165 184 229 86 66 184 108 284 126-58-66-106-138-141-215-10 2-19 3-29 3-64 0-117-44-131-104zm132-785c25-27 61-39 96-33 26-48 54-93 88-139-126 19-246 75-343 166 48 5 95 11 142 20 5-5 11-9 17-14z"/><path fill="none" stroke="#425459" stroke-width="51" d="M5474 6693h1443m3683 0l1941 2500m-1941-2500l1915-2374"/><path fill="#fff" d="M13872 10790V8780l1837-1006 1838 1006v2010l-1838 1005-1837-1005zm0 1005zm3675-4021z"/><path fill="none" stroke="#00aee7" stroke-width="102" d="M13872 10790V8780l1837-1006 1838 1006v2010l-1838 1005-1837-1005z"/><path fill="#00aee7" d="M15712 7848l1842 919-1842 920-1841-920 1841-919zm-1841 0zm3684 1839z"/><path fill="none" stroke="#00aee7" stroke-width="102" d="M15712 7848l1842 919-1842 920-1841-920 1841-919z"/><text><tspan font-size="423" font-weight="700" font-family="Liberation Sans, sans-serif"><tspan x="14336" y="10247"><tspan fill="#004359">COLLECTION</tspan></tspan></tspan></text><text><tspan font-size="423" font-weight="700" font-family="Liberation Sans, sans-serif"><tspan x="14571" y="10748"><tspan fill="#00aee7">DATABASE</tspan></tspan></tspan></text><title>645</title><g fill="#004359"><path d="M16186 8374c0 36-22 66-70 97-47 32-107 54-190 72-82 18-163 26-259 26s-177-8-259-26c-83-18-143-40-190-72-48-31-70-61-70-97s22-67 70-98c47-31 107-53 190-71 82-18 163-27 259-27s177 9 259 27c83 18 143 40 190 71 48 31 70 62 70 98zm-516 699c-284 0-521-80-521-132v263c0 96 233 174 521 174 287 0 520-78 520-174v-263c0 52-237 132-520 132z"/><path d="M15672 8667c-284 0-520-81-520-135v270c0 98 233 177 520 177s520-79 520-177v-270c0 54-236 135-520 135z"/></g><path fill="#fff" d="M12865 9074c-123 0-245 122-245 245v983c0 123 122 246 245 246h983c123 0 246-123 246-246v-983c0-123-123-245-246-245h-983zm-245 0zm1474 1474z"/><path fill="none" stroke="#004359" stroke-width="76" d="M12865 9074c-123 0-245 122-245 245v983c0 123 122 246 245 246h983c123 0 246-123 246-246v-983c0-123-123-245-246-245h-983z"/><text><tspan font-size="423" font-weight="700" font-family="Liberation Sans, sans-serif"><tspan x="12791" y="9706"><tspan fill="#004359">REST</tspan></tspan></tspan></text><text><tspan font-size="423" font-weight="700" font-family="Liberation Sans, sans-serif"><tspan x="13003" y="10207"><tspan fill="#00aee7">API</tspan></tspan></tspan></text><path fill="#fff" d="M17407 7956c-123 0-245 122-245 245v983c0 123 122 246 245 246h2141c123 0 246-123 246-246v-983c0-123-123-245-246-245h-2141zm-245 0zm2632 1474z"/><path fill="none" stroke="#004359" stroke-width="76" d="M17407 7956c-123 0-245 122-245 245v983c0 123 122 246 245 246h2141c123 0 246-123 246-246v-983c0-123-123-245-246-245h-2141z"/><text><tspan font-size="423" font-weight="700" font-family="Liberation Sans, sans-serif"><tspan x="17345" y="8588"><tspan fill="#004359">MONGODB</tspan></tspan></tspan></text><text><tspan font-size="423" font-weight="700" font-family="Liberation Sans, sans-serif"><tspan x="17451" y="9089"><tspan fill="#00aee7">ADAPTER</tspan></tspan></tspan></text><path fill="#fff" d="M17428 10278c-123 0-245 122-245 245v983c0 123 122 246 245 246h2141c123 0 246-123 246-246v-983c0-123-123-245-246-245h-2141zm-245 0zm2632 1474z"/><path fill="none" stroke="#004359" stroke-width="76" d="M17428 10278c-123 0-245 122-245 245v983c0 123 122 246 245 246h2141c123 0 246-123 246-246v-983c0-123-123-245-246-245h-2141z"/><text><tspan font-size="423" font-weight="700" font-family="Liberation Sans, sans-serif"><tspan x="17992" y="10910"><tspan fill="#004359">E-SC</tspan></tspan></tspan></text><text><tspan font-size="423" font-weight="700" font-family="Liberation Sans, sans-serif"><tspan x="17476" y="11411"><tspan fill="#00aee7">ADAPTER</tspan></tspan></tspan></text><path fill="#fff" d="M22373 10790V8780l1837-1006 1838 1006v2010l-1838 1005-1837-1005zm0 1005zm3675-4021z"/><path fill="none" stroke="#00aee7" stroke-width="102" d="M22373 10790V8780l1837-1006 1838 1006v2010l-1838 1005-1837-1005z"/><path fill="#00aee7" d="M24213 7848l1842 919-1842 920-1841-920 1841-919zm-1841 0zm3684 1839z"/><path fill="none" stroke="#00aee7" stroke-width="102" d="M24213 7848l1842 919-1842 920-1841-920 1841-919z"/><text><tspan font-size="423" font-weight="700" font-family="Liberation Sans, sans-serif"><tspan x="23707" y="10247"><tspan fill="#004359">E-SC</tspan></tspan></tspan></text><text><tspan font-size="423" font-weight="700" font-family="Liberation Sans, sans-serif"><tspan x="22922" y="10748"><tspan fill="#00aee7">WORKFLOW</tspan></tspan></tspan></text><path fill="#fff" d="M21366 9074c-123 0-245 122-245 245v983c0 123 122 246 245 246h983c123 0 246-123 246-246v-983c0-123-123-245-246-245h-983zm-245 0zm1474 1474z"/><path fill="none" stroke="#004359" stroke-width="76" d="M21366 9074c-123 0-245 122-245 245v983c0 123 122 246 245 246h983c123 0 246-123 246-246v-983c0-123-123-245-246-245h-983z"/><text><tspan font-size="423" font-weight="700" font-family="Liberation Sans, sans-serif"><tspan x="21292" y="9706"><tspan fill="#004359">REST</tspan></tspan></tspan></text><text><tspan font-size="423" font-weight="700" font-family="Liberation Sans, sans-serif"><tspan x="21504" y="10207"><tspan fill="#00aee7">API</tspan></tspan></tspan></text><title>887</title><path fill="#004359" d="M24243 8887c-6-44-24-84-50-118l59-58-53-53-58 59c-34-25-74-42-118-48v-84h-74v83c-44 6-85 23-119 48l-57-58-53 53 57 56c-27 35-45 75-52 120h-78v74h78c6 45 24 87 50 122l-55 55 53 52 55-56c35 26 76 43 121 49v80h74v-80c44-7 85-24 119-50l57 57 53-52-57-57c26-34 43-75 49-119h81v-75h-82zm-258 173c-75 0-136-61-136-136s61-135 136-135 136 60 136 135-61 136-136 136zm651-604l83-21-20-75-83 22c-9-19-20-36-35-52-14-15-31-26-49-35l23-82-74-21-23 82c-41-3-83 6-120 29l-57-59-55 54 57 58c-25 36-36 78-33 120l-80 21 20 74 79-20c9 18 20 36 35 52 16 15 34 27 52 37l-22 79 74 20 23-79c41 2 83-8 119-32l59 60 54-54-59-60c24-36 34-77 32-118zm-192 123c-63 0-114-51-114-113 0-63 51-114 114-114 62 0 113 51 113 114 0 62-51 113-113 113z"/><path fill="none" stroke="#425459" stroke-width="51" d="M19815 11015l1227-1230"/></g></svg>