<svg xmlns="http://www.w3.org/2000/svg" width="534.095" height="209.148" fill-rule="evenodd" stroke-width="28.222" version="1.2" viewBox="0 0 15073.339 5902.6208" clip-path="url(#a)" stroke-linejoin="round"><defs><clipPath id="a"><path d="M0 0h29700v21000H0z"/></clipPath></defs><g clip-path="url(#a)" transform="translate(-7551.773 -7670.49)"><path fill="gray" d="M10178 9013c-106 0-211 105-211 211v848c0 106 105 212 211 212h1991c106 0 212-106 212-212v-848c0-106-106-211-212-211h-1991zm-211 0zm2414 1271z"/><path fill="none" stroke="gray" d="M10178 9013c-106 0-211 105-211 211v848c0 106 105 212 211 212h1991c106 0 212-106 212-212v-848c0-106-106-211-212-211h-1991zm-211 0zm2414 1271z"/><text><tspan font-size="423" font-weight="400" font-family="Liberation Sans, sans-serif"><tspan x="10714" y="9794"><tspan fill="gray">Draft</tspan></tspan></tspan></text><path fill="#ffe2e2" d="M9978 8813c-106 0-211 105-211 211v848c0 106 105 212 211 212h1991c106 0 212-106 212-212v-848c0-106-106-211-212-211H9978zm-211 0zm2414 1271z"/><path fill="none" stroke="#e78b8b" d="M9978 8813c-106 0-211 105-211 211v848c0 106 105 212 211 212h1991c106 0 212-106 212-212v-848c0-106-106-211-212-211H9978zm-211 0zm2414 1271z"/><text><tspan font-size="423" font-weight="400" font-family="Liberation Sans, sans-serif"><tspan x="10514" y="9594"><tspan>Draft</tspan></tspan></tspan></text><path fill="gray" d="M15014 9013c-106 0-211 105-211 211v848c0 106 105 212 211 212h1991c106 0 212-106 212-212v-848c0-106-106-211-212-211h-1991zm-211 0zm2414 1271z"/><path fill="none" stroke="gray" d="M15014 9013c-106 0-211 105-211 211v848c0 106 105 212 211 212h1991c106 0 212-106 212-212v-848c0-106-106-211-212-211h-1991zm-211 0zm2414 1271z"/><text><tspan font-size="423" font-weight="400" font-family="Liberation Sans, sans-serif"><tspan x="15231" y="9555"><tspan fill="gray">Release</tspan></tspan></tspan><tspan font-size="423" font-weight="400" font-family="Liberation Sans, sans-serif"><tspan x="15646" y="10033"><tspan fill="gray">(v1)</tspan></tspan></tspan></text><path fill="#fff7c2" d="M14814 8813c-106 0-211 105-211 211v848c0 106 105 212 211 212h1991c106 0 212-106 212-212v-848c0-106-106-211-212-211h-1991zm-211 0zm2414 1271z"/><path fill="none" stroke="#e7ca00" d="M14814 8813c-106 0-211 105-211 211v848c0 106 105 212 211 212h1991c106 0 212-106 212-212v-848c0-106-106-211-212-211h-1991zm-211 0zm2414 1271z"/><text><tspan font-size="423" font-weight="400" font-family="Liberation Sans, sans-serif"><tspan x="15031" y="9355"><tspan>Release</tspan></tspan></tspan><tspan font-size="423" font-weight="400" font-family="Liberation Sans, sans-serif"><tspan x="15446" y="9833"><tspan>(v1)</tspan></tspan></tspan></text><path fill="gray" d="M10169 12288c-106 0-211 105-211 211v848c0 106 105 212 211 212h1991c106 0 212-106 212-212v-848c0-106-106-211-212-211h-1991zm-211 0zm2414 1271z"/><path fill="none" stroke="gray" d="M10169 12288c-106 0-211 105-211 211v848c0 106 105 212 211 212h1991c106 0 212-106 212-212v-848c0-106-106-211-212-211h-1991zm-211 0zm2414 1271z"/><text><tspan font-size="423" font-weight="400" font-family="Liberation Sans, sans-serif"><tspan x="10314" y="13069"><tspan fill="gray">Obsolete</tspan></tspan></tspan></text><path fill="#efefef" d="M9969 12088c-106 0-211 105-211 211v848c0 106 105 212 211 212h1991c106 0 212-106 212-212v-848c0-106-106-211-212-211H9969zm-211 0zm2414 1271z"/><path fill="none" stroke="#5f5f5f" d="M9969 12088c-106 0-211 105-211 211v848c0 106 105 212 211 212h1991c106 0 212-106 212-212v-848c0-106-106-211-212-211H9969zm-211 0zm2414 1271z"/><text><tspan font-size="423" font-weight="400" font-family="Liberation Sans, sans-serif"><tspan x="10114" y="12869"><tspan>Obsolete</tspan></tspan></tspan></text><path fill="none" stroke="#0000a8" d="M9768 9194h-502v-882h1708v291"/><path fill="#0000a8" d="M10875 8606l88 199 5 6 6 2 6-2 4-6 89-199 1-3v-1l-1-5-2-4-4-2-4-1h-178l-4 1-4 2-2 4-1 5v1l1 3z"/><text><tspan font-size="423" font-weight="400" font-family="Liberation Sans, sans-serif"><tspan x="8907" y="7977"><tspan>update(prov)</tspan></tspan></tspan></text><path fill="none" stroke="#0000a8" d="M12181 9448h2213"/><path fill="#0000a8" d="M14397 9547l199-88 6-5 2-6-2-6-6-4-199-89-3-1h-1l-5 1-4 2-2 4-1 4v178l1 4 2 4 4 2 5 1h1l3-1z"/><text><tspan font-size="423" font-weight="400" font-family="Liberation Sans, sans-serif"><tspan x="12549" y="9075"><tspan>approve()</tspan></tspan></tspan></text><text><tspan font-size="423" font-weight="400" font-family="Liberation Sans, sans-serif"><tspan x="11207" y="11255"><tspan>invalidate()</tspan></tspan></tspan></text><path fill="none" stroke="#0000a8" d="M17058 9448h2730"/><path fill="#0000a8" d="M19791 9547l199-88 6-5 2-6-2-6-6-4-199-89-3-1h-1l-5 1-4 2-2 4-1 4v178l1 4 2 4 4 2 5 1h1l3-1z"/><path fill="none" stroke="#0000a8" d="M10974 10083v53m0 32l-1 54m0 32v53m0 32v53m-1 33v53m0 32v53m0 33l-1 53m0 32v53m0 32v54m0 32l-1 53m0 32v53m0 33v53m-1 32v53m0 33v53m0 32l-1 53m0 32v54m0 32v53m-1 32v53m0 33v53m0 32l-1 53m0 33v53m0 32v1"/><path fill="#0000a8" d="M10867 11880l87 200 5 6 6 2 6-2 4-5 90-200 1-2v-2l-1-4-2-4-4-3-4-1h-182l-4 3-2 4-1 4v2l1 2z"/><path fill="gray" d="M20408 9013c-106 0-211 105-211 211v848c0 106 105 212 211 212h1991c106 0 212-106 212-212v-848c0-106-106-211-212-211h-1991zm-211 0zm2414 1271z"/><path fill="none" stroke="gray" d="M20408 9013c-106 0-211 105-211 211v848c0 106 105 212 211 212h1991c106 0 212-106 212-212v-848c0-106-106-211-212-211h-1991zm-211 0zm2414 1271z"/><text><tspan font-size="423" font-weight="400" font-family="Liberation Sans, sans-serif"><tspan x="20625" y="9555"><tspan fill="gray">Release</tspan></tspan></tspan><tspan font-size="423" font-weight="400" font-family="Liberation Sans, sans-serif"><tspan x="21040" y="10033"><tspan fill="gray">(v2)</tspan></tspan></tspan></text><path fill="#fff7c2" d="M20208 8813c-106 0-211 105-211 211v848c0 106 105 212 211 212h1991c106 0 212-106 212-212v-848c0-106-106-211-212-211h-1991zm-211 0zm2414 1271z"/><path fill="none" stroke="#e7ca00" d="M20208 8813c-106 0-211 105-211 211v848c0 106 105 212 211 212h1991c106 0 212-106 212-212v-848c0-106-106-211-212-211h-1991zm-211 0zm2414 1271z"/><text><tspan font-size="423" font-weight="400" font-family="Liberation Sans, sans-serif"><tspan x="20425" y="9355"><tspan>Release</tspan></tspan></tspan><tspan font-size="423" font-weight="400" font-family="Liberation Sans, sans-serif"><tspan x="20840" y="9833"><tspan>(v2)</tspan></tspan></tspan></text><text><tspan font-size="423" font-weight="400" font-family="Liberation Sans, sans-serif"><tspan x="17408" y="9083"><tspan>update(prov)</tspan></tspan></tspan></text><path fill="none" stroke="#0000a8" d="M15810 10083v53m0 32v54m0 32v53m0 32v53m0 33v53m0 32v53m0 33v53m0 32v53m0 32v54m0 32v53m0 32v53m0 33v53m0 32v53m0 33v53m0 32v53m0 32v54m0 32v53m0 32v53m0 33v53m0 32v53m0 33v53m0 32v53m0 32v54m0 32v53m0 32v53m0 33v53m0 32v53m0 33v53m0 32v53m0 33v53m0 32v53m-8 24h-53m-33 0h-53m-32 0h-53m-33 0h-53m-32 0h-53m-33 0h-53m-32 0h-53m-32 0h-53m-33 0h-53m-32 0h-53m-33 0h-53m-32 0h-53m-33 0h-53m-32 0h-53m-32 0h-54m-32 0h-53m-32 0h-53m-33 0h-53m-32 0h-53m-33 0h-53m-32 0h-53m-32 0h-54m-32 0h-53m-32 0h-53m-33 0h-53m-32 0h-53m-33 0h-53m-32 0h-53m-32 0h-54m-32 0h-53m-32 0h-53m-33 0h-53m-32 0h-53m-33 0h-53m-32 0h-53m-32 0h-54m-32 0h-53m-32 0h-53m-33 0h-53m-32 0h-53m-33 0h-2"/><path fill="#0000a8" d="M12379 12624l-199 88-6 5-2 6 2 6 6 4 199 89 3 1h1l5-1 4-2 2-4 1-4v-178l-1-4-2-4-4-2-5-1h-1l-3 1z"/><text><tspan font-size="423" font-weight="400" font-family="Liberation Sans, sans-serif"><tspan x="13008" y="13314"><tspan>invalidate()</tspan></tspan></tspan></text><path fill="red" d="M21204 10891h-762v-508h1524v508h-762z"/><path fill="none" stroke="red" d="M21204 10891h-762v-508h1524v508h-762z"/><text><tspan font-size="282" font-weight="400" font-family="Liberation Sans, sans-serif"><tspan x="20533" y="10734"><tspan fill="#fff">&lt;&lt;latest&gt;&gt;</tspan></tspan></tspan></text><path fill="none" stroke="#0000a8" d="M8511 10548l755-1100h292"/><path fill="#0000a8" d="M9561 9547l199-88 6-5 2-6-2-6-6-4-199-89-3-1h-1l-5 1-4 2-2 4-1 4v178l1 4 2 4 4 2 5 1h1l3-1z"/><text><tspan font-size="423" font-weight="400" font-family="Liberation Sans, sans-serif"><tspan x="7540" y="10988"><tspan>save(prov)</tspan></tspan></tspan></text><path d="M7927 11226c-42 0-84 42-84 84v340c0 42 42 85 84 85h1229c42 0 85-43 85-85v-340c0-42-43-84-85-84H7927zm-84 0zm1398 509z"/><path fill="none" stroke="#000" d="M7927 11226c-42 0-84 42-84 84v340c0 42 42 85 84 85h1229c42 0 85-43 85-85v-340c0-42-43-84-85-84H7927zm-84 0zm1398 509z"/><text><tspan font-size="282" font-weight="400" font-family="Liberation Sans, sans-serif"><tspan x="8116" y="11577"><tspan fill="#fff">[begin]</tspan></tspan></tspan></text></g></svg>