<?xml version="1.0" encoding="UTF-8" standalone="no"?>
<!-- Created with Inkscape (http://www.inkscape.org/) -->

<svg
   xmlns:dc="http://purl.org/dc/elements/1.1/"
   xmlns:cc="http://creativecommons.org/ns#"
   xmlns:rdf="http://www.w3.org/1999/02/22-rdf-syntax-ns#"
   xmlns:svg="http://www.w3.org/2000/svg"
   xmlns="http://www.w3.org/2000/svg"
   xmlns:sodipodi="http://sodipodi.sourceforge.net/DTD/sodipodi-0.dtd"
   xmlns:inkscape="http://www.inkscape.org/namespaces/inkscape"
   id="svg2"
   version="1.1"
   inkscape:version="0.48.3.1 r9886"
   width="738.05634"
   height="592.0575"
   xml:space="preserve"
   sodipodi:docname="mosquito_vector_vectorportal.eps"><metadata
     id="metadata8"><rdf:RDF><cc:Work
         rdf:about=""><dc:format>image/svg+xml</dc:format><dc:type
           rdf:resource="http://purl.org/dc/dcmitype/StillImage" /><dc:title></dc:title></cc:Work></rdf:RDF></metadata><defs
     id="defs6"><clipPath
       clipPathUnits="userSpaceOnUse"
       id="clipPath18"><path
         d="m 4152.6,1643.6 -328.67,262.98 c 81.8,1.86 163.6,3.49 245.33,4.74 239.79,3.59 479.52,5.36 718.41,3.74 -93.3,-11.08 -183.86,-25.07 -269.28,-42.46 -64.36,-13.09 -125.8,-28.06 -182.8,-44.78 -56.41,-16.79 -109.76,-35.09 -153.22,-56 -33.3,0.27 -66.64,0.65 -99.94,1.29 269.4,-6.58 542.35,0.95 811.21,17.24 l -361.5,-145.99 c -126.41,-3.48 -253.27,-3.37 -379.54,-0.76 z m -1013.44,242.31 -228.62,-92.57 c -143.11,11.07 -282.11,18.34 -413.82,20.68 -19.14,3.25 -38.2,6.54 -57.22,9.86 14.55,10.79 31.13,22.28 49.68,34.15 216.39,10.75 433.07,20.08 649.98,27.88 z m -702.97,-64.48 c 12.36,-2.38 24.75,-4.72 37.16,-7.15 -15.46,0.19 -30.81,0.31 -46.07,0.42 2.93,2.23 5.8,4.46 8.91,6.73 z m 840,69.35 c 102.45,3.49 204.92,6.78 307.47,9.69 l -204.3,-139.43 231.48,139.57 -3.15,0.53 c 16.09,0.46 32.21,0.87 48.31,1.33 l 312.59,-240.27 c -303.43,48.59 -620.71,91.81 -924.04,119.72 l 231.64,108.86 z m 360.06,26.81 c -110.17,-3.74 -220.21,-8.17 -330.21,-12.82 l 260.23,122.21 29.25,-23.21 -28.14,-33.24 68.87,-52.94 z m 2117.24,-34.94 c -124.63,-18.03 -252.84,-33.5 -381.8,-47.3 -139.87,-14.75 -281.43,-27.34 -424.19,-37.43 -252.47,-17.74 -509.43,-27.87 -765.04,-26.1 44.98,20.46 99.55,38.2 156.89,54.34 57.92,16.15 120.03,30.4 184.71,42.76 104.95,20.05 216.82,35.02 331.29,45.61 32.27,-0.34 64.53,-0.72 96.84,-1.17 269.86,-4.2 539.37,-12.34 801.3,-30.71 z m -78.69,-59.02 c -50.46,-21.64 -109.11,-41.18 -172.5,-58.61 -127.07,-34.97 -272.86,-61.53 -425.11,-80.7 -152.45,-19.21 -311.63,-31.41 -472.17,-37.61 -14.48,-0.54 -29,-0.99 -43.52,-1.45 l 332.63,145.09 c 18.38,1.17 36.86,2.19 55.19,3.37 143.53,9.41 285.97,21.37 426.87,35.51 134.11,13.64 266.79,28.92 397.25,47.29 -26.21,-18.67 -60.29,-36.37 -98.64,-52.89 z M 1114.31,1519.84 c -4.85,16.71 -9.17,33.54 -12.75,50.03 11.31,-2.35 22.68,-4.69 34.34,-6.88 16.97,-3.19 34.43,-6.13 52.27,-8.92 -0.7,-4.55 -0.04,-9.36 2.62,-14.64 2.37,-4.69 5.8,-9.41 9.9,-14.18 -28.8,-1.89 -57.59,-3.71 -86.38,-5.41 z m 338.27,88.98 -22.66,3.81 c 0,0 -142.03,-2.42 -208.56,-29.37 -14.94,2 -29.85,4.19 -44.53,6.49 -27.8,4.43 -55.03,9.42 -81.68,14.83 -7.99,53.35 -5.54,101 16.23,130.98 17.1,-5.75 35.54,-11.83 54.8,-18.18 15.86,-34.04 58.24,-63.34 142.21,-81.27 50.39,-10.73 98.41,-19.75 144.32,-27.29 l -0.13,0 z m 3052.67,12.47 0.78,-0.22 0.58,0.26 c 34.17,0.68 68.28,1.47 102.45,2.68 165.2,5.82 330.39,17.51 489.44,37.25 158.69,19.81 311.73,47.34 446.96,84.21 67.43,18.41 130.4,39.21 185.22,62.57 54.79,23.38 101.61,49.47 132.69,78.17 l 14.46,13.38 -39.08,2.99 c -289.37,21.78 -585.28,31.24 -881.26,34.33 -296.05,3.15 -592.83,0.34 -888.9,-6.73 -88.38,-2.04 -176.77,-4.58 -265.06,-7.22 l -199.31,159.49 -39.33,-33.16 -7.13,6.17 -386.63,-156.62 c -143.67,-6.81 -287.09,-14.26 -430.3,-22.39 -82.17,-4.66 -164.23,-9.57 -246.14,-14.86 86,54.26 213.63,115.9 389.02,154.66 -373.32,-7.83 -597.54,-102.4 -597.54,-102.4 0,0 -90.35,98.04 179.83,211.49 -363.22,-37.4 -725.6,-243.59 -725.6,-243.59 0,0 -68.14,110.51 159.4,214.01 -447.01,-82.8 -508.96,-275.27 -508.96,-275.27 0,0 -102.97,31.2 -116.46,105.72 -47.52,-39.13 -101.07,-97.02 -113.22,-152.08 -74.43,18 -137.55,31.72 -180.969,38.42 l -29.742,11 2.465,-7.49 c -16.422,1.62 -27.726,1.4 -32.875,-1.01 5.043,-3.75 18.715,-9.64 38.902,-17.1 l 58.489,-176.01 c -100.899,24.61 -191.395,54.67 -268.332,88.7 -77.024,34.07 -140.121,72.3 -185.637,113.4 -45.684,41.07 -73.606,84.89 -84.082,129.7 2.305,-45.03 22.187,-89.91 60.953,-132.8 38.559,-42.92 95.844,-83.68 168.922,-120.81 73.101,-37.02 161.348,-70.59 263.09,-98.95 18.472,-5.15 37.536,-10.11 56.936,-14.89 l 23.22,-69.86 c -49.01,-2.57 -98.031,-4.72 -147.188,-6.08 -115.648,-3.33 -232.007,-3.03 -344.804,4 -112.547,6.97 -221.446,21.18 -314.199,44.17 -92.993,22.84 -167.9457,54.23 -222.3598,89.62 48.9414,-36.42 119.3868,-69.57 210.9458,-94.84 91.152,-25.29 201.546,-42.12 316.671,-51.5 115.45,-9.37 235.372,-11.87 354.434,-10.58 51.305,0.49 102.55,1.85 153.66,3.55 l 65.76,-197.96 -75.16,-32.06 57.14,-24.54 -422.162,-710.269 c 110.344,-15.089 67.262,1.129 67.262,1.129 l 438.9,712.74 69.52,29.87 -55.82,18.45 c -14.53,29.3 -55.22,114.46 -83.87,204.95 35.16,1.43 70.17,3.02 105.09,4.72 75.18,-57.81 227.4,-115.4 187.61,-136.17 33.28,9.53 66.91,27.49 96.8,49.13 78.02,-11.08 133.63,-22.72 152.17,-39.44 -162.39,-53.1 -248.26,-180.86 -242.64,-379.941 0.19,-5.777 6.8,-9.637 6.82,-10.289 0,0 -1.69,24.2 40.25,30.75 -7.36,260.03 171.48,321.1 259.26,345.68 l 17.58,4.99 -3.69,7.49 c -16.61,33.96 -107.7,51.57 -200.1,64.61 59.27,52.61 93.05,115.6 56.54,138.11 -2.94,1.81 -6.02,3.47 -9.08,5.09 197.5,-63.72 373.62,-122.81 404.82,-145.49 127.87,32.02 115.4,45.63 115.4,45.63 0,0 -17.86,5.64 -48.97,15.36 33.2,13.27 28.01,19.24 28.01,19.24 0,0 -87.01,26.06 -213.6,62.81 105.61,4.91 189.84,20.49 256.39,40.34 4.87,-49.54 10.21,-85.72 12.02,-90.52 l 46.49,-6.85 c 1.23,-7.78 2.2,-12.74 2.81,-14.29 l 116.48,-17.16 c 0,0 -1.08,64.23 -7.23,144.28 36.83,-9.22 79.59,-19.05 127.35,-29.37 l 502.13,-457.27 -28.66,-34.98 51.96,-8.39 254.57,-654.689 74.16,-24.121 -223.91,667.24 29.07,54.56 -89.03,8.39 -422.72,419.24 c 429.05,-82.74 1116.77,-180.94 1784.16,-213.99 l 420.49,-323.18 -15.06,-18.37 117.13,-19.06 837.94,-340.209 81.73,-10.281 -865.23,377.26 14.39,26.84 -71.07,6.69 -367.22,293.92 c 321.71,-11 633.51,-5.18 903.54,26.74 -230.28,51.34 -682.52,149.43 -1202.05,239.23 96.56,-1.97 193.81,-1.97 291.12,-0.07 z"
         id="path20"
         inkscape:connector-curvature="0" /></clipPath><linearGradient
       x1="0"
       y1="0"
       x2="1"
       y2="0"
       gradientUnits="userSpaceOnUse"
       gradientTransform="matrix(585.509,-3.32012,3.32012,-780.72,2.54639,129.199)"
       spreadMethod="pad"
       id="linearGradient22"><stop
         style="stop-opacity:1;stop-color:#ffffff"
         offset="0"
         id="stop24" /><stop
         style="stop-opacity:1;stop-color:#171817"
         offset="1"
         id="stop26" /></linearGradient><clipPath
       clipPathUnits="userSpaceOnUse"
       id="clipPath34"><path
         d="M 0,5889.69 0,0 l 6009.69,0 0,5889.69 -6009.69,0 z"
         id="path36"
         inkscape:connector-curvature="0" /></clipPath><clipPath
       clipPathUnits="userSpaceOnUse"
       id="clipPath44"><path
         d="m 6009.69,5444.91 -6009.69,0 0,290 6009.69,0 0,-290 z"
         id="path46"
         inkscape:connector-curvature="0" /></clipPath><linearGradient
       x1="0"
       y1="0"
       x2="1"
       y2="0"
       gradientUnits="userSpaceOnUse"
       gradientTransform="matrix(-1.27e-6,29,29,1.27e-6,300.484,544.491)"
       spreadMethod="pad"
       id="linearGradient48"><stop
         style="stop-opacity:1;stop-color:#fce88d"
         offset="0"
         id="stop50" /><stop
         style="stop-opacity:1;stop-color:#f6c316"
         offset="0.5"
         id="stop52" /><stop
         style="stop-opacity:1;stop-color:#f4a21b"
         offset="1"
         id="stop54" /></linearGradient><clipPath
       clipPathUnits="userSpaceOnUse"
       id="clipPath62"><path
         d="M 0,5889.69 0,0 l 6009.69,0 0,5889.69 -6009.69,0 z"
         id="path64"
         inkscape:connector-curvature="0" /></clipPath></defs><sodipodi:namedview
     pagecolor="#ffffff"
     bordercolor="#666666"
     borderopacity="1"
     objecttolerance="10"
     gridtolerance="10"
     guidetolerance="10"
     inkscape:pageopacity="0"
     inkscape:pageshadow="2"
     inkscape:window-width="1920"
     inkscape:window-height="1056"
     id="namedview4"
     showgrid="false"
     fit-margin-top="0"
     fit-margin-left="0"
     fit-margin-right="0"
     fit-margin-bottom="0"
     inkscape:zoom="0.9066795"
     inkscape:cx="662.87351"
     inkscape:cy="345.32"
     inkscape:window-x="0"
     inkscape:window-y="24"
     inkscape:window-maximized="1"
     inkscape:current-layer="g10" /><g
     id="g10"
     inkscape:groupmode="layer"
     inkscape:label="ink_ext_XXXXXX"
     transform="matrix(1.25,0,0,-1.25,-2.99365,592.0575)"><g
       id="g14"
       transform="matrix(0.1,0,0,0.1,0,1.7656252e-6)"
       style="fill:#808080"><g
         clip-path="url(#clipPath18)"
         id="g16"
         style="fill:#808080"><path
           inkscape:connector-curvature="0"
           id="path28"
           style="fill:#808080;fill-opacity:1;fill-rule:nonzero;stroke:none"
           d="m 4152.6,1643.6 -328.67,262.98 c 81.8,1.86 163.6,3.49 245.33,4.74 239.79,3.59 479.52,5.36 718.41,3.74 -93.3,-11.08 -183.86,-25.07 -269.28,-42.46 -64.36,-13.09 -125.8,-28.06 -182.8,-44.78 -56.41,-16.79 -109.76,-35.09 -153.22,-56 -33.3,0.27 -66.64,0.65 -99.94,1.29 269.4,-6.58 542.35,0.95 811.21,17.24 l -361.5,-145.99 c -126.41,-3.48 -253.27,-3.37 -379.54,-0.76 z m -1013.44,242.31 -228.62,-92.57 c -143.11,11.07 -282.11,18.34 -413.82,20.68 -19.14,3.25 -38.2,6.54 -57.22,9.86 14.55,10.79 31.13,22.28 49.68,34.15 216.39,10.75 433.07,20.08 649.98,27.88 z m -702.97,-64.48 c 12.36,-2.38 24.75,-4.72 37.16,-7.15 -15.46,0.19 -30.81,0.31 -46.07,0.42 2.93,2.23 5.8,4.46 8.91,6.73 z m 840,69.35 c 102.45,3.49 204.92,6.78 307.47,9.69 l -204.3,-139.43 231.48,139.57 -3.15,0.53 c 16.09,0.46 32.21,0.87 48.31,1.33 l 312.59,-240.27 c -303.43,48.59 -620.71,91.81 -924.04,119.72 l 231.64,108.86 z m 360.06,26.81 c -110.17,-3.74 -220.21,-8.17 -330.21,-12.82 l 260.23,122.21 29.25,-23.21 -28.14,-33.24 68.87,-52.94 z m 2117.24,-34.94 c -124.63,-18.03 -252.84,-33.5 -381.8,-47.3 -139.87,-14.75 -281.43,-27.34 -424.19,-37.43 -252.47,-17.74 -509.43,-27.87 -765.04,-26.1 44.98,20.46 99.55,38.2 156.89,54.34 57.92,16.15 120.03,30.4 184.71,42.76 104.95,20.05 216.82,35.02 331.29,45.61 32.27,-0.34 64.53,-0.72 96.84,-1.17 269.86,-4.2 539.37,-12.34 801.3,-30.71 z m -78.69,-59.02 c -50.46,-21.64 -109.11,-41.18 -172.5,-58.61 -127.07,-34.97 -272.86,-61.53 -425.11,-80.7 -152.45,-19.21 -311.63,-31.41 -472.17,-37.61 -14.48,-0.54 -29,-0.99 -43.52,-1.45 l 332.63,145.09 c 18.38,1.17 36.86,2.19 55.19,3.37 143.53,9.41 285.97,21.37 426.87,35.51 134.11,13.64 266.79,28.92 397.25,47.29 -26.21,-18.67 -60.29,-36.37 -98.64,-52.89 z M 1114.31,1519.84 c -4.85,16.71 -9.17,33.54 -12.75,50.03 11.31,-2.35 22.68,-4.69 34.34,-6.88 16.97,-3.19 34.43,-6.13 52.27,-8.92 -0.7,-4.55 -0.04,-9.36 2.62,-14.64 2.37,-4.69 5.8,-9.41 9.9,-14.18 -28.8,-1.89 -57.59,-3.71 -86.38,-5.41 z m 338.27,88.98 -22.66,3.81 c 0,0 -142.03,-2.42 -208.56,-29.37 -14.94,2 -29.85,4.19 -44.53,6.49 -27.8,4.43 -55.03,9.42 -81.68,14.83 -7.99,53.35 -5.54,101 16.23,130.98 17.1,-5.75 35.54,-11.83 54.8,-18.18 15.86,-34.04 58.24,-63.34 142.21,-81.27 50.39,-10.73 98.41,-19.75 144.32,-27.29 l -0.13,0 z m 3052.67,12.47 0.78,-0.22 0.58,0.26 c 34.17,0.68 68.28,1.47 102.45,2.68 165.2,5.82 330.39,17.51 489.44,37.25 158.69,19.81 311.73,47.34 446.96,84.21 67.43,18.41 130.4,39.21 185.22,62.57 54.79,23.38 101.61,49.47 132.69,78.17 l 14.46,13.38 -39.08,2.99 c -289.37,21.78 -585.28,31.24 -881.26,34.33 -296.05,3.15 -592.83,0.34 -888.9,-6.73 -88.38,-2.04 -176.77,-4.58 -265.06,-7.22 l -199.31,159.49 -39.33,-33.16 -7.13,6.17 -386.63,-156.62 c -143.67,-6.81 -287.09,-14.26 -430.3,-22.39 -82.17,-4.66 -164.23,-9.57 -246.14,-14.86 86,54.26 213.63,115.9 389.02,154.66 -373.32,-7.83 -597.54,-102.4 -597.54,-102.4 0,0 -90.35,98.04 179.83,211.49 -363.22,-37.4 -725.6,-243.59 -725.6,-243.59 0,0 -68.14,110.51 159.4,214.01 -447.01,-82.8 -508.96,-275.27 -508.96,-275.27 0,0 -102.97,31.2 -116.46,105.72 -47.52,-39.13 -101.07,-97.02 -113.22,-152.08 -74.43,18 -137.55,31.72 -180.969,38.42 l -29.742,11 2.465,-7.49 c -16.422,1.62 -27.726,1.4 -32.875,-1.01 5.043,-3.75 18.715,-9.64 38.902,-17.1 l 58.489,-176.01 c -100.899,24.61 -191.395,54.67 -268.332,88.7 -77.024,34.07 -140.121,72.3 -185.637,113.4 -45.684,41.07 -73.606,84.89 -84.082,129.7 2.305,-45.03 22.187,-89.91 60.953,-132.8 38.559,-42.92 95.844,-83.68 168.922,-120.81 73.101,-37.02 161.348,-70.59 263.09,-98.95 18.472,-5.15 37.536,-10.11 56.936,-14.89 l 23.22,-69.86 c -49.01,-2.57 -98.031,-4.72 -147.188,-6.08 -115.648,-3.33 -232.007,-3.03 -344.804,4 -112.547,6.97 -221.446,21.18 -314.199,44.17 -92.993,22.84 -167.9457,54.23 -222.3598,89.62 48.9414,-36.42 119.3868,-69.57 210.9458,-94.84 91.152,-25.29 201.546,-42.12 316.671,-51.5 115.45,-9.37 235.372,-11.87 354.434,-10.58 51.305,0.49 102.55,1.85 153.66,3.55 l 65.76,-197.96 -75.16,-32.06 57.14,-24.54 -422.162,-710.269 c 110.344,-15.089 67.262,1.129 67.262,1.129 l 438.9,712.74 69.52,29.87 -55.82,18.45 c -14.53,29.3 -55.22,114.46 -83.87,204.95 35.16,1.43 70.17,3.02 105.09,4.72 75.18,-57.81 227.4,-115.4 187.61,-136.17 33.28,9.53 66.91,27.49 96.8,49.13 78.02,-11.08 133.63,-22.72 152.17,-39.44 -162.39,-53.1 -248.26,-180.86 -242.64,-379.941 0.19,-5.777 6.8,-9.637 6.82,-10.289 0,0 -1.69,24.2 40.25,30.75 -7.36,260.03 171.48,321.1 259.26,345.68 l 17.58,4.99 -3.69,7.49 c -16.61,33.96 -107.7,51.57 -200.1,64.61 59.27,52.61 93.05,115.6 56.54,138.11 -2.94,1.81 -6.02,3.47 -9.08,5.09 197.5,-63.72 373.62,-122.81 404.82,-145.49 127.87,32.02 115.4,45.63 115.4,45.63 0,0 -17.86,5.64 -48.97,15.36 33.2,13.27 28.01,19.24 28.01,19.24 0,0 -87.01,26.06 -213.6,62.81 105.61,4.91 189.84,20.49 256.39,40.34 4.87,-49.54 10.21,-85.72 12.02,-90.52 l 46.49,-6.85 c 1.23,-7.78 2.2,-12.74 2.81,-14.29 l 116.48,-17.16 c 0,0 -1.08,64.23 -7.23,144.28 36.83,-9.22 79.59,-19.05 127.35,-29.37 l 502.13,-457.27 -28.66,-34.98 51.96,-8.39 254.57,-654.689 74.16,-24.121 -223.91,667.24 29.07,54.56 -89.03,8.39 -422.72,419.24 c 429.05,-82.74 1116.77,-180.94 1784.16,-213.99 l 420.49,-323.18 -15.06,-18.37 117.13,-19.06 837.94,-340.209 81.73,-10.281 -865.23,377.26 14.39,26.84 -71.07,6.69 -367.22,293.92 c 321.71,-11 633.51,-5.18 903.54,26.74 -230.28,51.34 -682.52,149.43 -1202.05,239.23 96.56,-1.97 193.81,-1.97 291.12,-0.07" /></g></g><g
       id="g30"
       transform="matrix(0.1,0,0,0.1,0,1.7656252e-6)"><g
         clip-path="url(#clipPath34)"
         id="g32"><path
           inkscape:connector-curvature="0"
           id="path38"
           style="fill:#040606;fill-opacity:1;fill-rule:nonzero;stroke:none"
           d="m 4264.93,3324.34 -311.71,742.88 c 78.67,1.21 157.35,1.87 236,1.52 230.62,-1.45 461.25,-7.98 690.95,-23.95 -89.9,-26.04 -177.23,-60.52 -259.62,-104.53 -62.14,-33.19 -121.48,-71.54 -176.58,-115.2 -54.54,-43.67 -106.11,-91.71 -148.23,-147.45 -32.06,2.23 -64.14,4.86 -96.12,8.25 258.97,-31 521.56,-23.14 780.47,9.21 L 4630,3308.57 c -121.63,-3.63 -243.67,2.68 -365.07,15.77 z m 720.5,-760.07 c 9.49,-3.94 -232.98,-15.69 -232.98,-15.69 l -156.84,401.91 c 0,0 380.33,-382.28 389.82,-386.22 z m 823.08,1345.19 c -120.18,-43.98 -243.68,-80.67 -367.96,-112.6 -134.74,-34.27 -271.12,-62.34 -408.59,-83.44 -243.07,-37.08 -490.41,-52.85 -736.19,-35.81 43.63,54.49 96.38,100.9 151.8,142.79 55.97,41.87 115.95,78.25 178.34,109.4 101.26,50.48 209.05,86.57 319.3,110.31 31.07,-2.41 62.14,-4.94 93.17,-7.73 259.48,-24.41 518.53,-59.6 770.13,-122.92 z m -76.65,-159.4 c -48.89,-57.45 -105.62,-108.7 -166.85,-153.98 -122.8,-90.56 -263.47,-157.02 -410.17,-202.88 -146.94,-45.86 -300.23,-72.12 -454.74,-81.54 -13.95,-0.89 -27.92,-1.46 -41.9,-2.03 l 322.34,385.49 c 17.69,2.21 35.45,4.21 53.12,6.66 138.16,19.22 275.39,45.45 411.12,77.95 129.18,31.28 257.06,67.28 382.82,111.9 -25.51,-50.43 -58.57,-97.79 -95.74,-141.57 z m -2658.95,47.23 c -137.5,37.49 -271.04,64.2 -397.69,76.81 -18.32,9.95 -36.59,20 -54.84,30.09 14.2,29.15 30.31,60.13 48.35,92.13 208.27,19.39 416.82,34.95 625.55,46.14 l -221.37,-245.17 z m 620.9,-960.02 64.7,451.4 175.45,-527.37 -240.15,75.97 z m -395.52,177.91 89.69,426.4 c 0,0 103.65,-523.44 121.31,-523.44 -41.17,8.1 -211,97.04 -211,97.04 z m -378.75,190.25 24.4,162.51 152.92,173.63 33.8,-449.93 -211.12,113.79 z m -302.39,692.23 c 11.85,-7.25 23.72,-14.45 35.6,-21.62 -14.85,1.3 -29.59,2.4 -44.25,3.27 2.83,6.07 5.65,12.11 8.65,18.35 z M 4367.22,2627.01 c -14.69,-2.94 -182.32,45.09 -182.32,45.09 l -32.34,437.18 c 0,0 229.37,-479.33 214.66,-482.27 z m 237.25,618.34 0.55,0.65 c 32.86,0.27 65.74,1.04 98.59,2.67 158.97,8.17 318.05,32.69 471.32,79.77 152.95,47.22 300.64,116.06 431.25,211.64 65.19,47.79 126.04,102.24 179.21,164.24 53.04,61.97 98.47,131.86 128.86,209.85 l 14.15,36.33 -37.57,10.02 c -277.9,74 -562.33,114.18 -846.92,136.78 -284.73,22.69 -570.15,29.07 -855.06,23.56 -85.05,-1.58 -170.05,-4.24 -255,-7.43 l -132.69,316.14 25.12,53.16 -80.07,77.79 -1.43,3.41 -0.62,-1.41 -18.42,17.9 -92.17,-119.1 20.22,-20.76 -328.54,-363.81 c -138.28,-12.06 -276.35,-25.84 -414.21,-41.55 -79.09,-8.9 -158.1,-18.69 -236.96,-29.37 83.59,145.99 207.38,310.22 376.71,409.12 -318.38,-3.47 -564.56,-197.53 -616.43,-241.62 -3.57,17.5 -7.38,32.12 -11.44,43.35 3.4,92.94 35.22,298.22 227.91,519.78 C 2255.81,4644.32 1949,4097.35 1949,4097.35 c 0,0 -63.71,308.78 156.84,584.21 -431.3,-207.8 -494.04,-737.12 -494.04,-737.12 0,0 -98.51,91.15 -110.28,297.99 -44.78,-102.63 -95.32,-253.2 -110.01,-400.18 206.58,-160.13 493.37,-414.65 683.87,-587.13 102.71,9.36 184.45,50.04 248.85,103.28 -2.11,338.92 5.77,896.26 60,921.28 7.79,-2.78 14.64,-16.12 20.61,-37.91 -68.07,-40.1 -40.98,-953.17 -30.92,-1159.5 1.04,-21.42 1.91,-35.23 2.47,-39.64 l 111.74,-52.93 c 0,0 0,177.7 -4.58,399.23 35.25,-27.21 76.23,-56.48 121.99,-87.19 l 475.37,-1288.14 -28.17,-95.29 49.89,-25.83 L 3336.64,70.2188 3407.59,0 l -205.06,1861.67 11.95,119.86 -62.41,34.86 -405.15,1195.42 c 411.31,-249.15 1071.09,-553.29 1712.42,-676.37 l -328.68,752.24 -25.7,58.8 -16.68,38.2 c -291.01,148.7 -595.43,283.17 -886.68,374.76 l 224.57,289.85 c 98.6,4.92 197.2,9.15 295.84,12.32 l -198.77,-375.75 224.92,374.9 -3,1.68 c 15.48,0.48 30.96,0.86 46.42,1.28 l -18.7,42.86 c -106.02,-5.27 -211.94,-12.15 -317.77,-19.93 l 240.74,310.72 31.54,-32.37 7.76,-18.28 1134.01,-2678.96 -14.18,-37.93 -11.36,-30.39 35.6,-25.08 5.99,-4.24 57.92,-40.79 813.07,-996.1 78.43,-32.32 -825.85,1084.09 14.22,73.54 -68.21,21.9 -348.32,830.03 c 309.2,-45.59 609.19,-44.32 869.39,31.06 -220.62,152.94 -653.91,445.53 -1152.15,718.47 92.89,-9.87 186.43,-14.69 280.02,-14 l 0.74,-0.65 z M 1674.9,2891.6 c -32.5,0 -58.85,30.29 -58.85,67.65 0,37.35 26.35,67.63 58.85,67.63 32.51,0 58.86,-30.28 58.86,-67.63 0,-37.36 -26.35,-67.65 -58.86,-67.65 z m -334,234.75 c -4.4,46.53 -8.27,93.12 -11.45,138.89 10.86,-7.01 21.75,-14 32.93,-20.62 16.25,-9.6 33,-18.59 50.11,-27.16 -0.75,-12.5 -0.2,-25.9 2.3,-40.54 2.19,-13.06 5.39,-26.33 9.25,-39.72 -27.72,-3.93 -55.44,-7.54 -83.14,-10.85 z m 53.14,543.74 c 14.67,-94.87 54.95,-177.92 135.42,-231.45 48.27,-32.1 94.31,-59.29 138.33,-82.3 -0.02,-0.02 -0.12,-0.02 -0.12,-0.02 l -21.71,11.62 c 0,0 -136.65,0.05 -201.05,-71.29 -14.35,6.2 -28.64,12.87 -42.76,20.05 -26.64,13.6 -52.75,28.67 -78.29,44.93 -6.78,147.86 -3.65,279.35 17.77,361.41 16.35,-16.72 34,-34.5 52.41,-52.95 z m 855.12,-650.93 c -173.17,164.88 -778.14,734.95 -979,844.5 -29.64,27.8 -56.01,52.49 -77.78,72.91 l 57.01,-523.26 c -96.61,72.77 -183.16,160.23 -256.578,257.88 -73.535,97.91 -133.574,206.62 -176.664,322.39 -43.265,115.71 -69.414,238.26 -78.703,362.56 1.45,-124.62 19.844,-249.69 56.426,-370.07 36.367,-120.44 90.774,-235.9 160.426,-341.9 69.703,-105.96 154.033,-202.89 251.373,-286.26 17.71,-15.1 35.98,-29.6 54.53,-43.78 l 21.18,-194.3 c -47.16,-4.69 -94.34,-8.36 -141.63,-9.91 -111.28,-3.63 -223.188,2.73 -331.562,27.53 -108.114,24.59 -212.618,68.97 -301.442,137 -89.086,67.61 -160.609,157.89 -212.371,258.3 46.453,-102.92 113.672,-198.01 201.313,-272.04 87.285,-74.44 193.124,-126.19 303.703,-157.43 110.836,-31.52 226.169,-44.07 340.699,-46.28 49.35,-0.96 98.66,0.32 147.84,2.67 l 59.98,-550.4 -72.82,-85.17 54.55,-70.57 -417.722,-1943.8 c 27.52,-11.398 38.234,16.61 38.234,16.61 l 458.568,1930.94 69.09,81.53 -53.38,53.58 c -13.48,81.71 -51.21,319.22 -77.26,570.7 33.83,2.3 67.54,5 101.15,8.11 71.34,-163.52 216.79,-329.88 178.18,-385.37 32.18,24.74 64.81,72.77 93.9,131.3 74.89,-34.43 128.15,-69.34 145.69,-116.34 -157.05,-139.18 -241.73,-488.26 -239.59,-1039.03 0.08,-16.08 6.36,-26.97 6.38,-28.78 0,0 -1.22,67 39.2,83.14 -2.79,719.36 170.23,879.58 255.03,943.5 l 17.01,12.82 -3.43,21.02 c -15.38,94.67 -102.71,147.69 -191.37,188.15 57.88,142.59 91.4,315.12 56.66,379.12 -2.82,5.2 -5.75,9.9 -8.69,14.54 188.93,-185.54 357.32,-357.24 386.96,-421.46 123.5,82.34 111.75,120.57 111.75,120.57 0,0 -17.1,16.46 -46.84,44.78" /></g></g></g></svg>