<svg xmlns:svg="http://www.w3.org/2000/svg" xmlns="http://www.w3.org/2000/svg" version="1.1" width="738.1" height="592.1" xml:space="preserve"><style>.s0{fill:#808080;}</style><defs><clipPath clipPathUnits="userSpaceOnUse"><path d="m4152.6 1643.6-328.7 263c81.8 1.9 163.6 3.5 245.3 4.7 239.8 3.6 479.5 5.4 718.4 3.7-93.3-11.1-183.9-25.1-269.3-42.5-64.4-13.1-125.8-28.1-182.8-44.8-56.4-16.8-109.8-35.1-153.2-56-33.3 0.3-66.6 0.7-99.9 1.3 269.4-6.6 542.4 1 811.2 17.2l-361.5-146c-126.4-3.5-253.3-3.4-379.5-0.8zm-1013.4 242.3-228.6-92.6c-143.1 11.1-282.1 18.3-413.8 20.7-19.1 3.3-38.2 6.5-57.2 9.9 14.6 10.8 31.1 22.3 49.7 34.2 216.4 10.8 433.1 20.1 650 27.9zm-703-64.5c12.4-2.4 24.8-4.7 37.2-7.1-15.5 0.2-30.8 0.3-46.1 0.4 2.9 2.2 5.8 4.5 8.9 6.7zm840 69.4c102.5 3.5 204.9 6.8 307.5 9.7l-204.3-139.4 231.5 139.6-3.1 0.5c16.1 0.5 32.2 0.9 48.3 1.3l312.6-240.3c-303.4 48.6-620.7 91.8-924 119.7l231.6 108.9zm360.1 26.8c-110.2-3.7-220.2-8.2-330.2-12.8l260.2 122.2 29.3-23.2-28.1-33.2 68.9-52.9zm2117.2-34.9c-124.6-18-252.8-33.5-381.8-47.3-139.9-14.7-281.4-27.3-424.2-37.4-252.5-17.7-509.4-27.9-765-26.1 45 20.5 99.6 38.2 156.9 54.3 57.9 16.2 120 30.4 184.7 42.8 105 20.1 216.8 35 331.3 45.6 32.3-0.3 64.5-0.7 96.8-1.2 269.9-4.2 539.4-12.3 801.3-30.7zm-78.7-59c-50.5-21.6-109.1-41.2-172.5-58.6-127.1-35-272.9-61.5-425.1-80.7-152.4-19.2-311.6-31.4-472.2-37.6-14.5-0.5-29-1-43.5-1.4l332.6 145.1c18.4 1.2 36.9 2.2 55.2 3.4 143.5 9.4 286 21.4 426.9 35.5 134.1 13.6 266.8 28.9 397.3 47.3-26.2-18.7-60.3-36.4-98.6-52.9zM1114.3 1519.8c-4.8 16.7-9.2 33.5-12.7 50 11.3-2.3 22.7-4.7 34.3-6.9 17-3.2 34.4-6.1 52.3-8.9-0.7-4.5 0-9.4 2.6-14.6 2.4-4.7 5.8-9.4 9.9-14.2-28.8-1.9-57.6-3.7-86.4-5.4zm338.3 89-22.7 3.8c0 0-142-2.4-208.6-29.4-14.9 2-29.8 4.2-44.5 6.5-27.8 4.4-55 9.4-81.7 14.8-8 53.4-5.5 101 16.2 131 17.1-5.7 35.5-11.8 54.8-18.2 15.9-34 58.2-63.3 142.2-81.3 50.4-10.7 98.4-19.7 144.3-27.3l-0.1 0zm3052.7 12.5 0.8-0.2 0.6 0.3c34.2 0.7 68.3 1.5 102.5 2.7 165.2 5.8 330.4 17.5 489.4 37.3 158.7 19.8 311.7 47.3 447 84.2 67.4 18.4 130.4 39.2 185.2 62.6 54.8 23.4 101.6 49.5 132.7 78.2l14.5 13.4-39.1 3c-289.4 21.8-585.3 31.2-881.3 34.3-296 3.2-592.8 0.3-888.9-6.7-88.4-2-176.8-4.6-265.1-7.2l-199.3 159.5-39.3-33.2-7.1 6.2-386.6-156.6c-143.7-6.8-287.1-14.3-430.3-22.4-82.2-4.7-164.2-9.6-246.1-14.9 86 54.3 213.6 115.9 389 154.7-373.3-7.8-597.5-102.4-597.5-102.4 0 0-90.3 98 179.8 211.5-363.2-37.4-725.6-243.6-725.6-243.6 0 0-68.1 110.5 159.4 214-447-82.8-509-275.3-509-275.3 0 0-103 31.2-116.5 105.7-47.5-39.1-101.1-97-113.2-152.1-74.4 18-137.5 31.7-181 38.4l-29.7 11 2.5-7.5c-16.4 1.6-27.7 1.4-32.9-1 5-3.7 18.7-9.6 38.9-17.1l58.5-176c-100.9 24.6-191.4 54.7-268.3 88.7-77 34.1-140.1 72.3-185.6 113.4-45.7 41.1-73.6 84.9-84.1 129.7 2.3-45 22.2-89.9 61-132.8 38.6-42.9 95.8-83.7 168.9-120.8 73.1-37 161.3-70.6 263.1-98.9 18.5-5.1 37.5-10.1 56.9-14.9l23.2-69.9c-49-2.6-98-4.7-147.2-6.1-115.6-3.3-232-3-344.8 4-112.5 7-221.4 21.2-314.2 44.2-93 22.8-167.9 54.2-222.4 89.6 48.9-36.4 119.4-69.6 210.9-94.8 91.2-25.3 201.5-42.1 316.7-51.5 115.5-9.4 235.4-11.9 354.4-10.6 51.3 0.5 102.6 1.9 153.7 3.6l65.8-198-75.2-32.1 57.1-24.5-422.2-710.3c110.3-15.1 67.3 1.1 67.3 1.1l438.9 712.7 69.5 29.9-55.8 18.5c-14.5 29.3-55.2 114.5-83.9 205 35.2 1.4 70.2 3 105.1 4.7 75.2-57.8 227.4-115.4 187.6-136.2 33.3 9.5 66.9 27.5 96.8 49.1 78-11.1 133.6-22.7 152.2-39.4-162.4-53.1-248.3-180.9-242.6-379.9 0.2-5.8 6.8-9.6 6.8-10.3 0 0-1.7 24.2 40.3 30.8-7.4 260 171.5 321.1 259.3 345.7l17.6 5-3.7 7.5c-16.6 34-107.7 51.6-200.1 64.6 59.3 52.6 93.1 115.6 56.5 138.1-2.9 1.8-6 3.5-9.1 5.1 197.5-63.7 373.6-122.8 404.8-145.5 127.9 32 115.4 45.6 115.4 45.6 0 0-17.9 5.6-49 15.4 33.2 13.3 28 19.2 28 19.2 0 0-87 26.1-213.6 62.8 105.6 4.9 189.8 20.5 256.4 40.3 4.9-49.5 10.2-85.7 12-90.5l46.5-6.8c1.2-7.8 2.2-12.7 2.8-14.3l116.5-17.2c0 0-1.1 64.2-7.2 144.3 36.8-9.2 79.6-19 127.4-29.4l502.1-457.3-28.7-35 52-8.4 254.6-654.7 74.2-24.1-223.9 667.2 29.1 54.6-89 8.4-422.7 419.2c429.1-82.7 1116.8-180.9 1784.2-214l420.5-323.2-15.1-18.4 117.1-19.1 837.9-340.2 81.7-10.3-865.2 377.3 14.4 26.8-71.1 6.7-367.2 293.9c321.7-11 633.5-5.2 903.5 26.7-230.3 51.3-682.5 149.4-1202 239.2 96.6-2 193.8-2 291.1-0.1z"/></clipPath><linearGradient x1="0" y1="0" x2="1" y2="0" gradientUnits="userSpaceOnUse" gradientTransform="matrix(585.509,-3.32012,3.32012,-780.72,2.54639,129.199)" spreadMethod="pad"><stop offset="0" style="stop-color:#ffffff;stop-opacity:1"/><stop offset="1" style="stop-color:#171817;stop-opacity:1"/></linearGradient><clipPath clipPathUnits="userSpaceOnUse"><path d="M0 5889.7 0 0l6009.7 0 0 5889.7-6009.7 0z"/></clipPath><clipPath clipPathUnits="userSpaceOnUse"><path d="m6009.7 5444.9-6009.7 0 0 290 6009.7 0 0-290z"/></clipPath><linearGradient x1="0" y1="0" x2="1" y2="0" gradientUnits="userSpaceOnUse" gradientTransform="matrix(-1.27e-6,29,29,1.27e-6,300.484,544.491)" spreadMethod="pad"><stop offset="0" style="stop-color:#fce88d;stop-opacity:1"/><stop offset="0.5" style="stop-color:#f6c316;stop-opacity:1"/><stop offset="1" style="stop-color:#f4a21b;stop-opacity:1"/></linearGradient><clipPath clipPathUnits="userSpaceOnUse"><path d="M0 5889.7 0 0l6009.7 0 0 5889.7-6009.7 0z"/></clipPath></defs><g transform="matrix(1.25,0,0,-1.25,-2.99365,592.0575)"><g transform="matrix(0.1,0,0,0.1,0,1.7656252e-6)" fill="#808080"><g clip-path="url(#clipPath18)" fill="#808080"><path d="m4152.6 1643.6-328.7 263c81.8 1.9 163.6 3.5 245.3 4.7 239.8 3.6 479.5 5.4 718.4 3.7-93.3-11.1-183.9-25.1-269.3-42.5-64.4-13.1-125.8-28.1-182.8-44.8-56.4-16.8-109.8-35.1-153.2-56-33.3 0.3-66.6 0.7-99.9 1.3 269.4-6.6 542.4 1 811.2 17.2l-361.5-146c-126.4-3.5-253.3-3.4-379.5-0.8zm-1013.4 242.3-228.6-92.6c-143.1 11.1-282.1 18.3-413.8 20.7-19.1 3.3-38.2 6.5-57.2 9.9 14.6 10.8 31.1 22.3 49.7 34.2 216.4 10.8 433.1 20.1 650 27.9zm-703-64.5c12.4-2.4 24.8-4.7 37.2-7.1-15.5 0.2-30.8 0.3-46.1 0.4 2.9 2.2 5.8 4.5 8.9 6.7zm840 69.4c102.5 3.5 204.9 6.8 307.5 9.7l-204.3-139.4 231.5 139.6-3.1 0.5c16.1 0.5 32.2 0.9 48.3 1.3l312.6-240.3c-303.4 48.6-620.7 91.8-924 119.7l231.6 108.9zm360.1 26.8c-110.2-3.7-220.2-8.2-330.2-12.8l260.2 122.2 29.3-23.2-28.1-33.2 68.9-52.9zm2117.2-34.9c-124.6-18-252.8-33.5-381.8-47.3-139.9-14.7-281.4-27.3-424.2-37.4-252.5-17.7-509.4-27.9-765-26.1 45 20.5 99.6 38.2 156.9 54.3 57.9 16.2 120 30.4 184.7 42.8 105 20.1 216.8 35 331.3 45.6 32.3-0.3 64.5-0.7 96.8-1.2 269.9-4.2 539.4-12.3 801.3-30.7zm-78.7-59c-50.5-21.6-109.1-41.2-172.5-58.6-127.1-35-272.9-61.5-425.1-80.7-152.4-19.2-311.6-31.4-472.2-37.6-14.5-0.5-29-1-43.5-1.4l332.6 145.1c18.4 1.2 36.9 2.2 55.2 3.4 143.5 9.4 286 21.4 426.9 35.5 134.1 13.6 266.8 28.9 397.3 47.3-26.2-18.7-60.3-36.4-98.6-52.9zM1114.3 1519.8c-4.8 16.7-9.2 33.5-12.7 50 11.3-2.3 22.7-4.7 34.3-6.9 17-3.2 34.4-6.1 52.3-8.9-0.7-4.5 0-9.4 2.6-14.6 2.4-4.7 5.8-9.4 9.9-14.2-28.8-1.9-57.6-3.7-86.4-5.4zm338.3 89-22.7 3.8c0 0-142-2.4-208.6-29.4-14.9 2-29.8 4.2-44.5 6.5-27.8 4.4-55 9.4-81.7 14.8-8 53.4-5.5 101 16.2 131 17.1-5.7 35.5-11.8 54.8-18.2 15.9-34 58.2-63.3 142.2-81.3 50.4-10.7 98.4-19.7 144.3-27.3l-0.1 0zm3052.7 12.5 0.8-0.2 0.6 0.3c34.2 0.7 68.3 1.5 102.5 2.7 165.2 5.8 330.4 17.5 489.4 37.3 158.7 19.8 311.7 47.3 447 84.2 67.4 18.4 130.4 39.2 185.2 62.6 54.8 23.4 101.6 49.5 132.7 78.2l14.5 13.4-39.1 3c-289.4 21.8-585.3 31.2-881.3 34.3-296 3.2-592.8 0.3-888.9-6.7-88.4-2-176.8-4.6-265.1-7.2l-199.3 159.5-39.3-33.2-7.1 6.2-386.6-156.6c-143.7-6.8-287.1-14.3-430.3-22.4-82.2-4.7-164.2-9.6-246.1-14.9 86 54.3 213.6 115.9 389 154.7-373.3-7.8-597.5-102.4-597.5-102.4 0 0-90.3 98 179.8 211.5-363.2-37.4-725.6-243.6-725.6-243.6 0 0-68.1 110.5 159.4 214-447-82.8-509-275.3-509-275.3 0 0-103 31.2-116.5 105.7-47.5-39.1-101.1-97-113.2-152.1-74.4 18-137.5 31.7-181 38.4l-29.7 11 2.5-7.5c-16.4 1.6-27.7 1.4-32.9-1 5-3.7 18.7-9.6 38.9-17.1l58.5-176c-100.9 24.6-191.4 54.7-268.3 88.7-77 34.1-140.1 72.3-185.6 113.4-45.7 41.1-73.6 84.9-84.1 129.7 2.3-45 22.2-89.9 61-132.8 38.6-42.9 95.8-83.7 168.9-120.8 73.1-37 161.3-70.6 263.1-98.9 18.5-5.1 37.5-10.1 56.9-14.9l23.2-69.9c-49-2.6-98-4.7-147.2-6.1-115.6-3.3-232-3-344.8 4-112.5 7-221.4 21.2-314.2 44.2-93 22.8-167.9 54.2-222.4 89.6 48.9-36.4 119.4-69.6 210.9-94.8 91.2-25.3 201.5-42.1 316.7-51.5 115.5-9.4 235.4-11.9 354.4-10.6 51.3 0.5 102.6 1.9 153.7 3.6l65.8-198-75.2-32.1 57.1-24.5-422.2-710.3c110.3-15.1 67.3 1.1 67.3 1.1l438.9 712.7 69.5 29.9-55.8 18.5c-14.5 29.3-55.2 114.5-83.9 205 35.2 1.4 70.2 3 105.1 4.7 75.2-57.8 227.4-115.4 187.6-136.2 33.3 9.5 66.9 27.5 96.8 49.1 78-11.1 133.6-22.7 152.2-39.4-162.4-53.1-248.3-180.9-242.6-379.9 0.2-5.8 6.8-9.6 6.8-10.3 0 0-1.7 24.2 40.3 30.8-7.4 260 171.5 321.1 259.3 345.7l17.6 5-3.7 7.5c-16.6 34-107.7 51.6-200.1 64.6 59.3 52.6 93.1 115.6 56.5 138.1-2.9 1.8-6 3.5-9.1 5.1 197.5-63.7 373.6-122.8 404.8-145.5 127.9 32 115.4 45.6 115.4 45.6 0 0-17.9 5.6-49 15.4 33.2 13.3 28 19.2 28 19.2 0 0-87 26.1-213.6 62.8 105.6 4.9 189.8 20.5 256.4 40.3 4.9-49.5 10.2-85.7 12-90.5l46.5-6.8c1.2-7.8 2.2-12.7 2.8-14.3l116.5-17.2c0 0-1.1 64.2-7.2 144.3 36.8-9.2 79.6-19 127.4-29.4l502.1-457.3-28.7-35 52-8.4 254.6-654.7 74.2-24.1-223.9 667.2 29.1 54.6-89 8.4-422.7 419.2c429.1-82.7 1116.8-180.9 1784.2-214l420.5-323.2-15.1-18.4 117.1-19.1 837.9-340.2 81.7-10.3-865.2 377.3 14.4 26.8-71.1 6.7-367.2 293.9c321.7-11 633.5-5.2 903.5 26.7-230.3 51.3-682.5 149.4-1202 239.2 96.6-2 193.8-2 291.1-0.1" fill="#808080"/></g></g><g transform="matrix(0.1,0,0,0.1,0,1.7656252e-6)"><g clip-path="url(#clipPath34)"><path d="m4264.9 3324.3-311.7 742.9c78.7 1.2 157.4 1.9 236 1.5 230.6-1.4 461.3-8 691-23.9-89.9-26-177.2-60.5-259.6-104.5-62.1-33.2-121.5-71.5-176.6-115.2-54.5-43.7-106.1-91.7-148.2-147.4-32.1 2.2-64.1 4.9-96.1 8.3 259-31 521.6-23.1 780.5 9.2L4630 3308.6c-121.6-3.6-243.7 2.7-365.1 15.8zm720.5-760.1c9.5-3.9-233-15.7-233-15.7l-156.8 401.9c0 0 380.3-382.3 389.8-386.2zm823.1 1345.2c-120.2-44-243.7-80.7-368-112.6-134.7-34.3-271.1-62.3-408.6-83.4-243.1-37.1-490.4-52.8-736.2-35.8 43.6 54.5 96.4 100.9 151.8 142.8 56 41.9 116 78.3 178.3 109.4 101.3 50.5 209.1 86.6 319.3 110.3 31.1-2.4 62.1-4.9 93.2-7.7 259.5-24.4 518.5-59.6 770.1-122.9zm-76.6-159.4c-48.9-57.4-105.6-108.7-166.8-154-122.8-90.6-263.5-157-410.2-202.9-146.9-45.9-300.2-72.1-454.7-81.5-13.9-0.9-27.9-1.5-41.9-2l322.3 385.5c17.7 2.2 35.5 4.2 53.1 6.7 138.2 19.2 275.4 45.5 411.1 78 129.2 31.3 257.1 67.3 382.8 111.9-25.5-50.4-58.6-97.8-95.7-141.6zm-2658.9 47.2c-137.5 37.5-271 64.2-397.7 76.8-18.3 10-36.6 20-54.8 30.1 14.2 29.2 30.3 60.1 48.4 92.1 208.3 19.4 416.8 35 625.6 46.1l-221.4-245.2zm620.9-960 64.7 451.4 175.5-527.4-240.1 76zm-395.5 177.9 89.7 426.4c0 0 103.7-523.4 121.3-523.4-41.2 8.1-211 97-211 97zm-378.7 190.3 24.4 162.5 152.9 173.6 33.8-449.9-211.1 113.8zm-302.4 692.2c11.9-7.2 23.7-14.4 35.6-21.6-14.8 1.3-29.6 2.4-44.2 3.3 2.8 6.1 5.7 12.1 8.7 18.4zM4367.2 2627c-14.7-2.9-182.3 45.1-182.3 45.1l-32.3 437.2c0 0 229.4-479.3 214.7-482.3zm237.3 618.3 0.6 0.7c32.9 0.3 65.7 1 98.6 2.7 159 8.2 318.1 32.7 471.3 79.8 153 47.2 300.6 116.1 431.3 211.6 65.2 47.8 126 102.2 179.2 164.2 53 62 98.5 131.9 128.9 209.9l14.2 36.3-37.6 10c-277.9 74-562.3 114.2-846.9 136.8-284.7 22.7-570.1 29.1-855.1 23.6-85-1.6-170-4.2-255-7.4l-132.7 316.1 25.1 53.2-80.1 77.8-1.4 3.4-0.6-1.4-18.4 17.9-92.2-119.1 20.2-20.8-328.5-363.8c-138.3-12.1-276.3-25.8-414.2-41.5-79.1-8.9-158.1-18.7-237-29.4 83.6 146 207.4 310.2 376.7 409.1-318.4-3.5-564.6-197.5-616.4-241.6-3.6 17.5-7.4 32.1-11.4 43.4 3.4 92.9 35.2 298.2 227.9 519.8C2255.8 4644.3 1949 4097.4 1949 4097.4c0 0-63.7 308.8 156.8 584.2-431.3-207.8-494-737.1-494-737.1 0 0-98.5 91.2-110.3 298-44.8-102.6-95.3-253.2-110-400.2 206.6-160.1 493.4-414.6 683.9-587.1 102.7 9.4 184.5 50 248.9 103.3-2.1 338.9 5.8 896.3 60 921.3 7.8-2.8 14.6-16.1 20.6-37.9-68.1-40.1-41-953.2-30.9-1159.5 1-21.4 1.9-35.2 2.5-39.6l111.7-52.9c0 0 0 177.7-4.6 399.2 35.3-27.2 76.2-56.5 122-87.2l475.4-1288.1-28.2-95.3 49.9-25.8L3336.6 70.2 3407.6 0l-205.1 1861.7 12 119.9-62.4 34.9-405.1 1195.4c411.3-249.1 1071.1-553.3 1712.4-676.4l-328.7 752.2-25.7 58.8-16.7 38.2c-291 148.7-595.4 283.2-886.7 374.8l224.6 289.9c98.6 4.9 197.2 9.2 295.8 12.3l-198.8-375.7 224.9 374.9-3 1.7c15.5 0.5 31 0.9 46.4 1.3l-18.7 42.9c-106-5.3-211.9-12.1-317.8-19.9l240.7 310.7 31.5-32.4 7.8-18.3 1134-2679-14.2-37.9-11.4-30.4 35.6-25.1 6-4.2 57.9-40.8 813.1-996.1 78.4-32.3-825.8 1084.1 14.2 73.5-68.2 21.9-348.3 830c309.2-45.6 609.2-44.3 869.4 31.1-220.6 152.9-653.9 445.5-1152.1 718.5 92.9-9.9 186.4-14.7 280-14l0.7-0.6zM1674.9 2891.6c-32.5 0-58.8 30.3-58.8 67.7 0 37.4 26.4 67.6 58.9 67.6 32.5 0 58.9-30.3 58.9-67.6 0-37.4-26.3-67.6-58.9-67.6zm-334 234.8c-4.4 46.5-8.3 93.1-11.4 138.9 10.9-7 21.8-14 32.9-20.6 16.3-9.6 33-18.6 50.1-27.2-0.7-12.5-0.2-25.9 2.3-40.5 2.2-13.1 5.4-26.3 9.3-39.7-27.7-3.9-55.4-7.5-83.1-10.8zm53.1 543.7c14.7-94.9 55-177.9 135.4-231.4 48.3-32.1 94.3-59.3 138.3-82.3 0 0-0.1 0-0.1 0l-21.7 11.6c0 0-136.6 0.1-201-71.3-14.3 6.2-28.6 12.9-42.8 20.1-26.6 13.6-52.7 28.7-78.3 44.9-6.8 147.9-3.6 279.4 17.8 361.4 16.4-16.7 34-34.5 52.4-52.9zm855.1-650.9c-173.2 164.9-778.1 735-979 844.5-29.6 27.8-56 52.5-77.8 72.9l57-523.3c-96.6 72.8-183.2 160.2-256.6 257.9-73.5 97.9-133.6 206.6-176.7 322.4-43.3 115.7-69.4 238.3-78.7 362.6 1.5-124.6 19.8-249.7 56.4-370.1 36.4-120.4 90.8-235.9 160.4-341.9 69.7-106 154-202.9 251.4-286.3 17.7-15.1 36-29.6 54.5-43.8l21.2-194.3c-47.2-4.7-94.3-8.4-141.6-9.9-111.3-3.6-223.2 2.7-331.6 27.5-108.1 24.6-212.6 69-301.4 137-89.1 67.6-160.6 157.9-212.4 258.3 46.5-102.9 113.7-198 201.3-272 87.3-74.4 193.1-126.2 303.7-157.4 110.8-31.5 226.2-44.1 340.7-46.3 49.4-1 98.7 0.3 147.8 2.7l60-550.4-72.8-85.2 54.6-70.6-417.7-1943.8c27.5-11.4 38.2 16.6 38.2 16.6l458.6 1930.9 69.1 81.5-53.4 53.6c-13.5 81.7-51.2 319.2-77.3 570.7 33.8 2.3 67.5 5 101.2 8.1 71.3-163.5 216.8-329.9 178.2-385.4 32.2 24.7 64.8 72.8 93.9 131.3 74.9-34.4 128.2-69.3 145.7-116.3-157-139.2-241.7-488.3-239.6-1039 0.1-16.1 6.4-27 6.4-28.8 0 0-1.2 67 39.2 83.1-2.8 719.4 170.2 879.6 255 943.5l17 12.8-3.4 21c-15.4 94.7-102.7 147.7-191.4 188.2 57.9 142.6 91.4 315.1 56.7 379.1-2.8 5.2-5.7 9.9-8.7 14.5 188.9-185.5 357.3-357.2 387-421.5 123.5 82.3 111.8 120.6 111.8 120.6 0 0-17.1 16.5-46.8 44.8" fill="#040606"/></g></g></g></svg>