<svg xmlns="http://www.w3.org/2000/svg" width="843.5" height="264.697"><defs><clipPath id="a"><path d="M61.25 61.067h674.788v211.766H61.248V61.067z"/></clipPath><clipPath id="b"><path d="M23.42 214.026h749v-190h-749v190z"/></clipPath><clipPath id="c"><path d="M54.112 182.892h693.965V43.73H54.112v139.162z"/></clipPath><clipPath id="d"><path d="M529.6 101.356h23.853V56.773H529.6v44.583z"/></clipPath><clipPath id="e"><path d="M199.468 101.815h1.405V54.29h-1.405v47.525z"/></clipPath><clipPath id="f"><path d="M79.117 162.24h6.344v-6.345h-6.34v6.344z"/></clipPath><clipPath id="g"><path d="M61.414 148.67h6.344v-6.345h-6.344v6.344z"/></clipPath><clipPath id="h"><path d="M131.92 111.8h6.344v-6.342h-6.343v6.343z"/></clipPath><clipPath id="i"><path d="M149.53 86.296h6.344v-6.344h-6.344v6.344z"/></clipPath><clipPath id="j"><path d="M113.91 63.916h6.345v-6.344h-6.344v6.344z"/></clipPath><clipPath id="k"><path d="M56.168 84.572h6.344v-6.344h-6.344v6.344z"/></clipPath><clipPath id="l"><path d="M197 112.006h6.342v-6.343H197v6.343z"/></clipPath><clipPath id="m"><path d="M197.2 63.916h6.345v-6.344H197.2v6.344z"/></clipPath><clipPath id="n"><path d="M234.752 79.653h6.344V73.31h-6.344v6.343z"/></clipPath><clipPath id="o"><path d="M337.58 76.94h6.344v-6.344h-6.344v6.344z"/></clipPath><clipPath id="p"><path d="M289.682 87.904h3.332v-3.332h-3.332v3.332z"/></clipPath><clipPath id="q"><path d="M250.188 138.664h3.332v-3.332h-3.332v3.332z"/></clipPath><clipPath id="r"><path d="M329.382 120.414h3.333v-3.332h-3.333v3.332z"/></clipPath><clipPath id="s"><path d="M344.67 95.42H348v-3.33h-3.33v3.333z"/></clipPath><clipPath id="t"><path d="M378.975 64.8h7.573v-7.575h-7.573V64.8z"/></clipPath><clipPath id="u"><path d="M400.59 115.958h5.813v-5.813h-5.813v5.813z"/></clipPath><clipPath id="v"><path d="M476.925 81.19h5.813v-5.813h-5.813v5.813z"/></clipPath><clipPath id="w"><path d="M543.614 72.217h5.813v-5.813h-5.813v5.813z"/></clipPath><clipPath id="x"><path d="M527.138 103.965h5.813v-5.813h-5.81v5.813z"/></clipPath><clipPath id="y"><path d="M586.416 77.922h5.813V72.11h-5.82v5.812z"/></clipPath><clipPath id="z"><path d="M668.743 161.97h9.204v-9.203h-9.204v9.204z"/></clipPath><clipPath id="A"><path d="M604.81 125.447h5.103v-5.1h-5.102v5.1z"/></clipPath><clipPath id="B"><path d="M666.11 82.644h7.713V74.93h-7.714v7.713z"/></clipPath><clipPath id="C"><path d="M700.857 71.038h7.714v-7.714h-7.71v7.714z"/></clipPath><clipPath id="D"><path d="M719.733 114.207h7.714v-7.714h-7.714v7.714z"/></clipPath><clipPath id="E"><path d="M245.04 143.125h13.628v-13.627H245.04v13.627z"/></clipPath><clipPath id="F"><path d="M245.04 143.125h13.628v-13.627H245.04v13.627z"/></clipPath><clipPath id="G"><path d="M245.04 143.125h13.628v-13.627H245.04v13.627z"/></clipPath><clipPath id="H"><path d="M325.946 123.507h9.518v-9.517h-9.518v9.517z"/></clipPath><clipPath id="I"><path d="M325.946 123.507h9.518v-9.517h-9.518v9.517z"/></clipPath><clipPath id="J"><path d="M325.946 123.507h9.518v-9.517h-9.518v9.517z"/></clipPath><clipPath id="K"><path d="M521.278 108.19h15.67V92.523h-15.67v15.67z"/></clipPath><clipPath id="L"><path d="M521.278 108.19h15.67V92.523h-15.67v15.67z"/></clipPath><clipPath id="M"><path d="M521.278 108.19h15.67V92.523h-15.67v15.67z"/></clipPath><clipPath id="N"><path d="M229.102 84.315h15.67v-15.67H229.1v15.67z"/></clipPath><clipPath id="O"><path d="M229.102 84.315h15.67v-15.67H229.1v15.67z"/></clipPath><clipPath id="P"><path d="M229.102 84.315h15.67v-15.67H229.1v15.67z"/></clipPath><clipPath id="Q"><path d="M145.654 90.958h15.67v-15.67h-15.67v15.67z"/></clipPath><clipPath id="R"><path d="M145.654 90.958h15.67v-15.67h-15.67v15.67z"/></clipPath><clipPath id="S"><path d="M145.654 90.958h15.67v-15.67h-15.67v15.67z"/></clipPath><clipPath id="T"><path d="M74.454 166.902h15.67v-15.67h-15.67v15.67z"/></clipPath><clipPath id="U"><path d="M74.454 166.902h15.67v-15.67h-15.67v15.67z"/></clipPath><clipPath id="V"><path d="M74.454 166.902h15.67v-15.67h-15.67v15.67z"/></clipPath><clipPath id="W"><path d="M332.917 82.148h15.67v-15.67h-15.67v15.67z"/></clipPath><clipPath id="X"><path d="M332.917 82.148h15.67v-15.67h-15.67v15.67z"/></clipPath><clipPath id="Y"><path d="M332.917 82.148h15.67v-15.67h-15.67v15.67z"/></clipPath><clipPath id="Z"><path d="M536.947 77.654h15.67v-15.67h-15.67v15.67z"/></clipPath><clipPath id="aa"><path d="M536.947 77.654h15.67v-15.67h-15.67v15.67z"/></clipPath><clipPath id="ab"><path d="M536.947 77.654h15.67v-15.67h-15.67v15.67z"/></clipPath><clipPath id="ac"><path d="M698.002 75.016h15.67v-15.67H698v15.67z"/></clipPath><clipPath id="ad"><path d="M698.002 75.016h15.67v-15.67H698v15.67z"/></clipPath><clipPath id="ae"><path d="M698.002 75.016h15.67v-15.67H698v15.67z"/></clipPath><clipPath id="af"><path d="M192.134 68.58h15.67V52.91h-15.67v15.67z"/></clipPath><clipPath id="ag"><path d="M192.134 68.58h15.67V52.91h-15.67v15.67z"/></clipPath><clipPath id="ah"><path d="M192.134 68.58h15.67V52.91h-15.67v15.67z"/></clipPath><clipPath id="ai"><path d="M130.53 113.486h9.562v-9.562h-9.562v9.562z"/></clipPath><clipPath id="aj"><path d="M130.53 113.486h9.562v-9.562h-9.562v9.562z"/></clipPath><clipPath id="ak"><path d="M130.53 113.486h9.562v-9.562h-9.562v9.562z"/></clipPath><clipPath id="al"><path d="M59.34 183.66h4.138v-8.428H59.34v8.427z"/></clipPath><clipPath id="am"><path d="M59.34 183.66h4.138v-8.428H59.34v8.427z"/></clipPath><clipPath id="an"><path d="M59.34 183.66h4.138v-8.428H59.34v8.427z"/></clipPath><clipPath id="ao"><path d="M57.88 89.227h7.74V75.493h-7.74v13.734z"/></clipPath><clipPath id="ap"><path d="M57.88 89.227h7.74V75.493h-7.74v13.734z"/></clipPath><clipPath id="aq"><path d="M57.88 89.227h7.74V75.493h-7.74v13.734z"/></clipPath><clipPath id="ar"><path d="M285.427 92.165h10.765V81.4h-10.765v10.765z"/></clipPath><clipPath id="as"><path d="M285.427 92.165h10.765V81.4h-10.765v10.765z"/></clipPath><clipPath id="at"><path d="M285.427 92.165h10.765V81.4h-10.765v10.765z"/></clipPath><clipPath id="au"><path d="M371.15 70.148h21.454v-9.395H371.15v9.395z"/></clipPath><clipPath id="av"><path d="M371.15 70.148h21.454v-9.395H371.15v9.395z"/></clipPath><clipPath id="aw"><path d="M371.15 70.148h21.454v-9.395H371.15v9.395z"/></clipPath><clipPath id="ax"><path d="M583.763 80.625h11.118V69.507h-11.11v11.118z"/></clipPath><clipPath id="ay"><path d="M583.763 80.625h11.118V69.507h-11.11v11.118z"/></clipPath><clipPath id="az"><path d="M583.763 80.625h11.118V69.507h-11.11v11.118z"/></clipPath><clipPath id="aA"><path d="M664.02 85.27h11.892V73.376H664.02V85.27z"/></clipPath><clipPath id="aB"><path d="M662.51 168.203h21.67v-21.668h-21.67v21.668z"/></clipPath><clipPath id="aC"><path d="M662.51 168.203h21.67v-21.668h-21.67v21.668z"/></clipPath><clipPath id="aD"><path d="M662.51 168.203h21.67v-21.668h-21.67v21.668z"/></clipPath><clipPath id="aE"><path d="M724.706 158.69h11.705v-21.667h-11.7v21.667z"/></clipPath><clipPath id="aF"><path d="M724.706 158.69h11.705v-21.667h-11.7v21.667z"/></clipPath><clipPath id="aG"><path d="M724.706 158.69h11.705v-21.667h-11.7v21.667z"/></clipPath><clipPath id="aH"><path d="M100.613 180.637h7.778v-7.78h-7.77v7.78z"/></clipPath><clipPath id="aI"><path d="M342.165 97.644h7.78v-7.78h-7.78v7.78z"/></clipPath><clipPath id="aJ"><path d="M515.73 68.122h7.778v-7.37h-7.78v7.37z"/></clipPath><clipPath id="aK"><path d="M593.95 100.61h7.78v-7.78h-7.78v7.78z"/></clipPath><clipPath id="aL"><path d="M627.843 112.724h7.778v-7.78h-7.77v7.78z"/></clipPath><clipPath id="aM"><path d="M115.724 156.86h7.78v-7.778h-7.78v7.78z"/></clipPath><clipPath id="aN"><path d="M170.814 140.2h7.778v-7.778h-7.778v7.78z"/></clipPath><clipPath id="aO"><path d="M91.858 95.385h7.78v-7.78h-7.78v7.78z"/></clipPath><clipPath id="aP"><path d="M472.807 85.087h14.048V71.04h-14.048v14.047z"/></clipPath><clipPath id="aQ"><path d="M472.807 85.087h14.048V71.04h-14.048v14.047z"/></clipPath><clipPath id="aR"><path d="M472.807 85.087h14.048V71.04h-14.048v14.047z"/></clipPath><clipPath id="aS"><path d="M396.473 120.075h14.048v-14.047h-14.04v14.047z"/></clipPath><clipPath id="aT"><path d="M396.473 120.075h14.048v-14.047h-14.04v14.047z"/></clipPath><clipPath id="aU"><path d="M396.473 120.075h14.048v-14.047h-14.04v14.047z"/></clipPath><clipPath id="aV"><path d="M600.338 129.743h14.048v-14.048h-14.048v14.048z"/></clipPath><clipPath id="aW"><path d="M600.338 129.743h14.048v-14.048h-14.048v14.048z"/></clipPath><clipPath id="aX"><path d="M600.338 129.743h14.048v-14.048h-14.048v14.048z"/></clipPath><clipPath id="aY"><path d="M680.015 129.743h14.047v-14.048h-14.047v14.048z"/></clipPath><clipPath id="aZ"><path d="M680.015 129.743h14.047v-14.048h-14.047v14.048z"/></clipPath><clipPath id="ba"><path d="M680.015 129.743h14.047v-14.048h-14.047v14.048z"/></clipPath><clipPath id="bb"><path d="M715.7 117.374h14.048v-14.048H715.7v14.048z"/></clipPath><clipPath id="bc"><path d="M715.7 117.374h14.048v-14.048H715.7v14.048z"/></clipPath><clipPath id="bd"><path d="M715.7 117.374h14.048v-14.048H715.7v14.048z"/></clipPath><clipPath id="be"><path d="M396.22 80.94h9.997v-9.997h-9.998v9.998z"/></clipPath><clipPath id="bf"><path d="M396.22 80.94h9.997v-9.997h-9.998v9.998z"/></clipPath><clipPath id="bg"><path d="M396.22 80.94h9.997v-9.997h-9.998v9.998z"/></clipPath><clipPath id="bh"><path d="M193.35 115.858h14.047V101.81H193.35v14.048z"/></clipPath><clipPath id="bi"><path d="M193.35 115.858h14.047V101.81H193.35v14.048z"/></clipPath><clipPath id="bj"><path d="M193.35 115.858h14.047V101.81H193.35v14.048z"/></clipPath><clipPath id="bk"><path d="M60.41 153.56h11.72v-14.05H60.41v14.047z"/></clipPath><clipPath id="bl"><path d="M60.41 153.56h11.72v-14.05H60.41v14.047z"/></clipPath><clipPath id="bm"><path d="M60.41 153.56h11.72v-14.05H60.41v14.047z"/></clipPath><clipPath id="bn"><path d="M111.35 69.58h14.05v-8.827h-14.05v8.826z"/></clipPath><clipPath id="bo"><path d="M111.35 69.58h14.05v-8.827h-14.05v8.826z"/></clipPath><clipPath id="bp"><path d="M111.35 69.58h14.05v-8.827h-14.05v8.826z"/></clipPath><clipPath id="bq"><path d="M23.42 215.637h749v-214h-749v214z"/></clipPath><clipPath id="br"><path d="M211.96 148.843h21.666v-21.667H211.96v21.667z"/></clipPath><clipPath id="bs"><path d="M211.96 148.843h21.666v-21.667H211.96v21.667z"/></clipPath><clipPath id="bt"><path d="M211.96 148.843h21.666v-21.667H211.96v21.667z"/></clipPath><clipPath id="bu"><path d="M290.81 131.28h21.667v-21.667H290.81v21.667z"/></clipPath><clipPath id="bv"><path d="M290.81 131.28h21.667v-21.667H290.81v21.667z"/></clipPath><clipPath id="bw"><path d="M290.81 131.28h21.667v-21.667H290.81v21.667z"/></clipPath><clipPath id="bx"><path d="M489.217 112.888h21.667V91.22h-21.667v21.668z"/></clipPath><clipPath id="by"><path d="M489.217 112.888h21.667V91.22h-21.667v21.668z"/></clipPath><clipPath id="bz"><path d="M489.217 112.888h21.667V91.22h-21.667v21.668z"/></clipPath><clipPath id="bA"><path d="M95.416 121.237h21.667V99.57H95.416v21.667z"/></clipPath><clipPath id="bB"><path d="M95.416 121.237h21.667V99.57H95.416v21.667z"/></clipPath><clipPath id="bC"><path d="M95.416 121.237h21.667V99.57H95.416v21.667z"/></clipPath><clipPath id="bD"><path d="M249.92 100.138h21.668V78.47H249.92v21.668z"/></clipPath><clipPath id="bE"><path d="M249.92 100.138h21.668V78.47H249.92v21.668z"/></clipPath><clipPath id="bF"><path d="M249.92 100.138h21.668V78.47H249.92v21.668z"/></clipPath><clipPath id="bG"><path d="M341.98 71.846h21.67V50.178h-21.67v21.668z"/></clipPath><clipPath id="bH"><path d="M341.98 71.846h21.67V50.178h-21.67v21.668z"/></clipPath><clipPath id="bI"><path d="M341.98 71.846h21.67V50.178h-21.67v21.668z"/></clipPath><clipPath id="bJ"><path d="M549.427 87.598h21.667V65.93h-21.667v21.668z"/></clipPath><clipPath id="bK"><path d="M549.427 87.598h21.667V65.93h-21.667v21.668z"/></clipPath><clipPath id="bL"><path d="M549.427 87.598h21.667V65.93h-21.667v21.668z"/></clipPath><clipPath id="bM"><path d="M630.07 91.855h21.668v-21.67H630.07v21.67z"/></clipPath><clipPath id="bN"><path d="M630.07 91.855h21.668v-21.67H630.07v21.67z"/></clipPath><clipPath id="bO"><path d="M630.07 91.855h21.668v-21.67H630.07v21.67z"/></clipPath><clipPath id="bP"><path d="M633.45 169.9h21.667v-21.666H633.45V169.9z"/></clipPath><clipPath id="bQ"><path d="M633.45 169.9h21.667v-21.666H633.45V169.9z"/></clipPath><clipPath id="bR"><path d="M633.45 169.9h21.667v-21.666H633.45V169.9z"/></clipPath><clipPath id="bS"><path d="M695.644 160.388h21.667V138.72h-21.66v21.668z"/></clipPath><clipPath id="bT"><path d="M695.644 160.388h21.667V138.72h-21.66v21.668z"/></clipPath><clipPath id="bU"><path d="M695.644 160.388h21.667V138.72h-21.66v21.668z"/></clipPath><clipPath id="bV"><path d="M71.55 182.335h7.78v-7.78h-7.78v7.78z"/></clipPath><clipPath id="bW"><path d="M313.103 99.342h7.78v-7.78h-7.78v7.78z"/></clipPath><clipPath id="bX"><path d="M486.667 69.82h7.78v-7.78h-7.78v7.78z"/></clipPath><clipPath id="bY"><path d="M564.888 102.307h7.78v-7.78h-7.78v7.78z"/></clipPath><clipPath id="bZ"><path d="M598.78 114.422h7.78v-7.78h-7.78v7.78z"/></clipPath><clipPath id="ca"><path d="M86.662 158.56h7.78v-7.78h-7.78v7.78z"/></clipPath><clipPath id="cb"><path d="M141.752 141.9h7.778v-7.78h-7.778v7.78z"/></clipPath><clipPath id="cc"><path d="M62.796 97.083h7.78v-7.78h-7.78v7.78z"/></clipPath><clipPath id="cd"><path d="M443.745 86.785h14.048V72.738h-14.048v14.047z"/></clipPath><clipPath id="ce"><path d="M443.745 86.785h14.048V72.738h-14.048v14.047z"/></clipPath><clipPath id="cf"><path d="M443.745 86.785h14.048V72.738h-14.048v14.047z"/></clipPath><clipPath id="cg"><path d="M367.41 121.773h14.05v-14.047h-14.05v14.047z"/></clipPath><clipPath id="ch"><path d="M367.41 121.773h14.05v-14.047h-14.05v14.047z"/></clipPath><clipPath id="ci"><path d="M367.41 121.773h14.05v-14.047h-14.05v14.047z"/></clipPath><clipPath id="cj"><path d="M571.276 131.44h14.048v-14.047h-14.048v14.048z"/></clipPath><clipPath id="ck"><path d="M571.276 131.44h14.048v-14.047h-14.048v14.048z"/></clipPath><clipPath id="cl"><path d="M571.276 131.44h14.048v-14.047h-14.048v14.048z"/></clipPath><clipPath id="cm"><path d="M650.953 131.44H665v-14.047h-14.047v14.048z"/></clipPath><clipPath id="cn"><path d="M650.953 131.44H665v-14.047h-14.047v14.048z"/></clipPath><clipPath id="co"><path d="M650.953 131.44H665v-14.047h-14.047v14.048z"/></clipPath><clipPath id="cp"><path d="M686.64 119.072h14.046v-14.048H686.64v14.048z"/></clipPath><clipPath id="cq"><path d="M686.64 119.072h14.046v-14.048H686.64v14.048z"/></clipPath><clipPath id="cr"><path d="M686.64 119.072h14.046v-14.048H686.64v14.048z"/></clipPath><clipPath id="cs"><path d="M365.132 84.664h14.048V70.616h-14.048v14.048z"/></clipPath><clipPath id="ct"><path d="M365.132 84.664h14.048V70.616h-14.048v14.048z"/></clipPath><clipPath id="cu"><path d="M365.132 84.664h14.048V70.616h-14.048v14.048z"/></clipPath><clipPath id="cv"><path d="M164.287 117.556h14.048V103.51h-14.048v14.046z"/></clipPath><clipPath id="cw"><path d="M164.287 117.556h14.048V103.51h-14.048v14.046z"/></clipPath><clipPath id="cx"><path d="M164.287 117.556h14.048V103.51h-14.048v14.046z"/></clipPath><clipPath id="cy"><path d="M82.29 71.278h14.047V57.23H82.29v14.048z"/></clipPath><clipPath id="cz"><path d="M82.29 71.278h14.047V57.23H82.29v14.048z"/></clipPath><clipPath id="cA"><path d="M82.29 71.278h14.047V57.23H82.29v14.048z"/></clipPath></defs><path fill="#fff" stroke="#fff" stroke-width="1.25" stroke-miterlimit="10" d="M.632.614H842.87v263.46H.632V.614z"/><g clip-path="url(#a)" transform="matrix(1.25 0 0 -1.25 -76.555 341.031)"><g fill="#be7077" clip-path="url(#b)" opacity=".07"><path d="M136.36 108.405l.027 2.49 63.986-.71-.028-2.49-63.986.71z"/><path d="M135.526 108.738l-53.82 50.012 1.693 1.823 53.82-50.012-1.7-1.82z"/><path d="M83.325 158.687l-1.546 1.95 22.42 17.755 1.54-1.95-22.42-17.755zM60.41 175.605v-2.974l21.46-14.01 1.362 2.09-22.823 14.9zm4.22-94.235l-2.416.593 19.13 77.996 2.417-.6-19.13-77.99z"/><path d="M73.9 60.753l-8.64 24.772-2.35-.82 8.353-23.952H73.9zm44.482 0l19.148 48.44-2.315.914-19.51-49.354h2.677zm55.128 0l27.922 47.555-2.147 1.26-28.662-48.815h2.888z"/><path d="M154.377 60.753l46.866 47.31-1.77 1.752-48.6-49.062h3.504zm-32.32 0L96.2 90.72l-1.255-1.087 24.92-28.88h2.192z"/><path d="M96.35 89.89l-1.556.573 23.056 62.55 1.557-.572L96.35 89.89zm77.713 44.19l-55.688 17.857.507 1.58 55.688-17.858-.507-1.58z"/><path d="M174.346 134.04l-.06 1.66 79.605 2.883.07-1.66-79.6-2.882zm4.002-73.287l76.16 76.414-1.175 1.17-77.328-77.584h2.343zM60.41 138.783l6.132 8.07-1.322 1.004-4.81-6.332v-2.743z"/><path d="M95.414 91.326l-30.26 55.633 1.457.79 30.27-55.63-1.45-.8zM219.03 60.753l35.643 76.65-1.504.7-35.97-77.35h1.83zm-88.723 0l44.718 73.686-1.42.86-45.24-74.55h1.942z"/><path d="M200.378 108.11l-.038 1.658 203.12 4.572.037-1.66-203.12-4.57zm153.906-47.357l-44.237 41.106-1.694-1.83 42.275-39.29h3.656z"/><path d="M309.973 99.972l-1.546 1.95 22.42 17.755 1.546-1.95-22.42-17.755z"/><path d="M308.52 99.905L251.546 137.1l1.36 2.084 56.973-37.194-1.36-2.085z"/><path d="M300.624 60.753l9.785 39.898-2.42.6-9.93-40.49h2.56zm33.276 0l12.155 32.973-1.557.573-12.365-33.55h1.768z"/><path d="M400.71 75.366l-55.687 17.857.507 1.58 55.688-17.858-.507-1.58z"/><path d="M400.995 75.326l-.06 1.66 79.605 2.882.06-1.66-79.605-2.882z"/><path d="M463.517 60.753l17.642 17.7-1.18 1.17-18.81-18.87h2.34zm-191.137 0l20.81 27.386-1.322 1-21.573-28.39h2.085z"/><path d="M308.643 60.753l-15.385 28.283-1.457-.792 14.96-27.49h1.89zm164.34 0l8.34 17.936-1.505.69-8.665-18.64h1.83zm-80.395 0l9.086 14.972-1.42.86-9.607-15.832h1.94zm70.534 0l-.267 1.28-6.147-1.28h6.414z"/><path d="M463.846 60.753l67.446 41.525-.87 1.413-67.833-41.76.72-1.17h.53z"/><path d="M520.117 60.753l11.54 42.012-1.6.438-11.66-42.45h1.72z"/><path d="M535.092 60.753l-3.41 42.3-1.652-.136 3.398-42.164h1.664z"/><path d="M515.58 60.753l157.765 94.178-.85 1.43-160.152-95.6h3.238zm153.602 19.413l-1.203 2.18 56.01 30.934 1.2-2.18-56.02-30.934zm-.89-.12L596.81 97.014l.573 2.422 71.484-16.97-.574-2.42z"/><path d="M598.25 97.757l-2.307.935 10.75 26.5 2.307-.934-10.75-26.5zm-1.232-.775l-67.906 4.263.156 2.485 67.906-4.263-.156-2.485z"/><path d="M608.968 60.753l-10.674 37.81-2.396-.677 10.483-37.133h2.59zm63.742 0l-2.898 20.676-2.464-.35 2.85-20.33h2.512zm52.348 0l.784 51.418-2.49.04-.784-51.45h2.49z"/><path d="M711.926 60.753l13.872 51.11-2.403.653-14.05-51.763h2.58zm-71.112 0l-8.094 49.363-1.637-.27 8.05-49.093h1.68z"/><path d="M689.322 121.095L632.07 109.17l-.338 1.623 57.252 11.926.338-1.63zm47.088 30.883l-47.692-29.364.87-1.413 46.823 28.83v1.95zm0-60.078l-8.554-31.146h1.72l6.835 24.883V91.9zM586.997 60.753l2.488 18.434-1.645.22-2.518-18.654h1.675z"/><path d="M620.012 60.753L589.102 80l-.878-1.407 28.65-17.84h3.138zm68.148 0l1.822 61.13-1.658.048-1.824-61.17h1.66zm48.25 59.457l-12.24-7.308.852-1.425 11.39 6.8v1.932z"/></g><g clip-path="url(#c)" opacity=".45"><path fill="none" stroke="#c05b6a" stroke-miterlimit="10" d="M117.41 61.012L60.09 180.637l75.22-71.932-74.423-27.01 230.46 4.204-39.493 50.41-20.144-86.4-31.34 58.91-25.67 27.48-3.89-80.54-35.5 52.93-15.7 44.264 80.76-44.14-65.063-.13-17.9-47.69L104.5 176.74l-39.914-31.794-9.875-37.53 138.64-51.1 137.36 62.428 51.74-55.806-91.1 22.96 17.58-31.838 94.57 58.987 76.34-34.987 50.22 23.062 59.278-26.06 79.305 2.998s79.85-25.766 78.944-23.77c-.91 1.996-13.69 95.262-13.69 95.262l-60.537 7.814s-42.95-105.53-43.27-103.08c-.32 2.45 1.66 54.54 1.66 54.54l-24.37 13.885-9.525-26 33.89 12.12 57.835 12.94 33.16-11.42-28.54-66.015L589.32 75.06l-69.7-10.81-118.4 11.685-55.164 17.812 133.776-15.69-38.255-26.887-38.078 61.873"/></g><g clip-path="url(#d)" opacity=".39"><path fill="none" stroke="#a06773" stroke-miterlimit="10" d="M530.044 101.125l22.966-44.12"/></g><g clip-path="url(#e)" opacity=".39"><path fill="none" stroke="#a06773" stroke-miterlimit="10" d="M200.373 101.81l-.405-47.516"/></g><g clip-path="url(#f)" opacity=".51"><path fill="#c05b6a" d="M79.117 159.067c0 1.752 1.42 3.172 3.172 3.172 1.75 0 3.17-1.42 3.17-3.18 0-1.75-1.42-3.17-3.17-3.17-1.76 0-3.18 1.42-3.18 3.17"/></g><g clip-path="url(#g)" opacity=".51"><path fill="#c05b6a" d="M61.414 145.497c0 1.752 1.42 3.172 3.172 3.172 1.752 0 3.172-1.42 3.172-3.18 0-1.75-1.42-3.17-3.172-3.17-1.752 0-3.172 1.42-3.172 3.17"/></g><g clip-path="url(#h)" opacity=".51"><path fill="#c05b6a" d="M131.92 108.63c0 1.752 1.42 3.172 3.173 3.172 1.752 0 3.172-1.42 3.172-3.172 0-1.752-1.42-3.172-3.172-3.172-1.752 0-3.172 1.42-3.172 3.172"/></g><g clip-path="url(#i)" opacity=".51"><path fill="#c05b6a" d="M149.53 83.124c0 1.752 1.42 3.172 3.172 3.172 1.752 0 3.172-1.42 3.172-3.172 0-1.752-1.42-3.172-3.172-3.172-1.752 0-3.172 1.42-3.172 3.172"/></g><g clip-path="url(#j)" opacity=".51"><path fill="#c05b6a" d="M113.91 60.744c0 1.752 1.42 3.172 3.173 3.172 1.752 0 3.172-1.42 3.172-3.172 0-1.752-1.42-3.172-3.172-3.172-1.752 0-3.172 1.42-3.172 3.172"/></g><g clip-path="url(#k)" opacity=".51"><path fill="#c05b6a" d="M56.168 81.4c0 1.752 1.42 3.172 3.172 3.172 1.752 0 3.172-1.42 3.172-3.172 0-1.752-1.42-3.172-3.172-3.172-1.752 0-3.172 1.42-3.172 3.172"/></g><g clip-path="url(#l)" opacity=".51"><path fill="#c05b6a" d="M197 108.834c0 1.752 1.42 3.172 3.17 3.172 1.753 0 3.173-1.42 3.173-3.172 0-1.752-1.42-3.172-3.172-3.172-1.75 0-3.17 1.42-3.17 3.172"/></g><g clip-path="url(#m)" opacity=".51"><path fill="#c05b6a" d="M197.2 60.744c0 1.752 1.42 3.172 3.173 3.172 1.752 0 3.172-1.42 3.172-3.172 0-1.752-1.42-3.172-3.172-3.172-1.752 0-3.172 1.42-3.172 3.172"/></g><g clip-path="url(#n)" opacity=".51"><path fill="#c05b6a" d="M234.752 76.48c0 1.753 1.42 3.173 3.172 3.173 1.752 0 3.172-1.42 3.172-3.172 0-1.75-1.42-3.17-3.172-3.17-1.752 0-3.172 1.42-3.172 3.17"/></g><g clip-path="url(#o)" opacity=".51"><path fill="#c05b6a" d="M337.58 73.768c0 1.752 1.42 3.172 3.172 3.172 1.752 0 3.172-1.42 3.172-3.172 0-1.752-1.42-3.172-3.172-3.172-1.752 0-3.172 1.42-3.172 3.172"/></g><g clip-path="url(#p)" opacity=".51"><path fill="#c05b6a" d="M289.682 86.238c0 .92.746 1.666 1.666 1.666.92 0 1.666-.746 1.666-1.666 0-.92-.746-1.666-1.666-1.666-.92 0-1.666.746-1.666 1.666"/></g><g clip-path="url(#q)" opacity=".51"><path fill="#c05b6a" d="M250.188 136.998c0 .92.746 1.666 1.666 1.666.92 0 1.666-.746 1.666-1.666 0-.92-.746-1.666-1.666-1.666-.92 0-1.666.746-1.666 1.666"/></g><g clip-path="url(#r)" opacity=".51"><path fill="#c05b6a" d="M329.382 118.748c0 .92.746 1.666 1.666 1.666.92 0 1.666-.746 1.666-1.666 0-.92-.745-1.666-1.666-1.666-.92 0-1.666.746-1.666 1.666"/></g><g clip-path="url(#s)" opacity=".51"><path fill="#c05b6a" d="M344.67 93.754c0 .92.745 1.666 1.665 1.666S348 94.674 348 93.754c0-.92-.745-1.666-1.665-1.666s-1.666.746-1.666 1.666"/></g><g clip-path="url(#t)" opacity=".51"><path fill="#c05b6a" d="M378.975 61.012c0 2.09 1.695 3.787 3.787 3.787 2.09 0 3.787-1.7 3.787-3.79s-1.7-3.79-3.79-3.79-3.79 1.69-3.79 3.78"/></g><g clip-path="url(#u)" opacity=".51"><path fill="#c05b6a" d="M400.59 113.052c0 1.604 1.3 2.906 2.906 2.906s2.907-1.3 2.907-2.906-1.3-2.908-2.907-2.908c-1.605 0-2.906 1.303-2.906 2.908"/></g><g clip-path="url(#v)" opacity=".51"><path fill="#c05b6a" d="M476.925 78.284c0 1.605 1.3 2.907 2.907 2.907 1.605 0 2.906-1.3 2.906-2.9 0-1.6-1.3-2.9-2.906-2.9s-2.907 1.3-2.907 2.91"/></g><g clip-path="url(#w)" opacity=".51"><path fill="#c05b6a" d="M543.614 69.31c0 1.606 1.3 2.908 2.906 2.908s2.907-1.302 2.907-2.907c0-1.6-1.3-2.9-2.907-2.9-1.605 0-2.906 1.3-2.906 2.91"/></g><g clip-path="url(#x)" opacity=".51"><path fill="#c05b6a" d="M527.138 101.058c0 1.605 1.3 2.906 2.906 2.906s2.907-1.3 2.907-2.906c0-1.605-1.3-2.907-2.9-2.907-1.6 0-2.9 1.31-2.9 2.91"/></g><g clip-path="url(#y)" opacity=".51"><path fill="#c05b6a" d="M586.416 75.016c0 1.605 1.3 2.907 2.906 2.907s2.907-1.302 2.907-2.907-1.31-2.907-2.91-2.907c-1.61 0-2.91 1.3-2.91 2.9"/></g><g clip-path="url(#z)" opacity=".51"><path fill="#c05b6a" d="M668.743 157.37c0 2.54 2.06 4.6 4.602 4.6 2.54 0 4.6-2.06 4.6-4.6 0-2.542-2.06-4.603-4.6-4.603-2.542 0-4.602 2.06-4.602 4.602"/></g><g clip-path="url(#A)" opacity=".51"><path fill="#c05b6a" d="M604.81 122.896c0 1.41 1.143 2.55 2.552 2.55 1.41 0 2.55-1.14 2.55-2.55s-1.14-2.55-2.55-2.55-2.55 1.14-2.55 2.55"/></g><g clip-path="url(#B)" opacity=".51"><path fill="#c05b6a" d="M666.11 78.787c0 2.13 1.726 3.857 3.856 3.857s3.857-1.727 3.857-3.857-1.727-3.857-3.857-3.857-3.857 1.727-3.857 3.857"/></g><g clip-path="url(#C)" opacity=".51"><path fill="#c05b6a" d="M700.857 67.18c0 2.13 1.727 3.858 3.857 3.858s3.857-1.727 3.857-3.857-1.72-3.85-3.85-3.85-3.85 1.73-3.85 3.86"/></g><g clip-path="url(#D)" opacity=".51"><path fill="#c05b6a" d="M719.733 110.35c0 2.13 1.727 3.857 3.857 3.857s3.857-1.727 3.857-3.857-1.727-3.857-3.857-3.857-3.857 1.727-3.857 3.857"/></g><g clip-path="url(#E)" opacity=".73"><g clip-path="url(#F)" opacity=".74"><path fill="#de5967" d="M245.04 136.31c0 3.764 3.05 6.814 6.814 6.814 3.763 0 6.814-3.05 6.814-6.813 0-3.76-3.05-6.81-6.814-6.81-3.763 0-6.813 3.05-6.813 6.82"/></g><g clip-path="url(#G)" opacity=".74"><path fill="#de5967" d="M245.04 136.31c0 3.764 3.05 6.814 6.814 6.814 3.763 0 6.814-3.05 6.814-6.813 0-3.76-3.05-6.81-6.814-6.81-3.763 0-6.813 3.05-6.813 6.82"/></g></g><g clip-path="url(#H)" opacity=".73"><g clip-path="url(#I)" opacity=".74"><path fill="#de5967" d="M325.946 118.748c0 2.628 2.13 4.76 4.76 4.76 2.627 0 4.757-2.132 4.757-4.76 0-2.628-2.13-4.76-4.758-4.76-2.63 0-4.76 2.132-4.76 4.76"/></g><g clip-path="url(#J)" opacity=".74"><path fill="#de5967" d="M325.946 118.748c0 2.628 2.13 4.76 4.76 4.76 2.627 0 4.757-2.132 4.757-4.76 0-2.628-2.13-4.76-4.758-4.76-2.63 0-4.76 2.132-4.76 4.76"/></g></g><g clip-path="url(#K)" opacity=".73"><g clip-path="url(#L)" opacity=".74"><path fill="#de5967" d="M521.278 100.356c0 4.327 3.508 7.835 7.835 7.835 4.326 0 7.834-3.5 7.834-7.83s-3.508-7.83-7.834-7.83c-4.327 0-7.835 3.51-7.835 7.84"/></g><g clip-path="url(#M)" opacity=".74"><path fill="#de5967" d="M521.278 100.356c0 4.327 3.508 7.835 7.835 7.835 4.326 0 7.834-3.5 7.834-7.83s-3.508-7.83-7.834-7.83c-4.327 0-7.835 3.51-7.835 7.84"/></g></g><g clip-path="url(#N)" opacity=".73"><g clip-path="url(#O)" opacity=".74"><path fill="#de5967" d="M229.102 76.48c0 4.328 3.508 7.835 7.835 7.835 4.326 0 7.834-3.507 7.834-7.834 0-4.32-3.5-7.83-7.83-7.83-4.32 0-7.83 3.51-7.83 7.84"/></g><g clip-path="url(#P)" opacity=".74"><path fill="#de5967" d="M229.102 76.48c0 4.328 3.508 7.835 7.835 7.835 4.326 0 7.834-3.507 7.834-7.834 0-4.32-3.5-7.83-7.83-7.83-4.32 0-7.83 3.51-7.83 7.84"/></g></g><g clip-path="url(#Q)" opacity=".73"><g clip-path="url(#R)" opacity=".74"><path fill="#de5967" d="M145.654 83.124c0 4.327 3.508 7.835 7.835 7.835 4.32 0 7.83-3.51 7.83-7.84s-3.51-7.84-7.84-7.84-7.84 3.5-7.84 7.83"/></g><g clip-path="url(#S)" opacity=".74"><path fill="#de5967" d="M145.654 83.124c0 4.327 3.508 7.835 7.835 7.835 4.32 0 7.83-3.51 7.83-7.84s-3.51-7.84-7.84-7.84-7.84 3.5-7.84 7.83"/></g></g><g clip-path="url(#T)" opacity=".73"><g clip-path="url(#U)" opacity=".74"><path fill="#de5967" d="M74.454 159.067c0 4.327 3.51 7.835 7.836 7.835 4.325 0 7.833-3.508 7.833-7.835s-3.508-7.835-7.834-7.835c-4.33 0-7.84 3.508-7.84 7.835"/></g><g clip-path="url(#V)" opacity=".74"><path fill="#de5967" d="M74.454 159.067c0 4.327 3.51 7.835 7.836 7.835 4.325 0 7.833-3.508 7.833-7.835s-3.508-7.835-7.834-7.835c-4.33 0-7.84 3.508-7.84 7.835"/></g></g><g clip-path="url(#W)" opacity=".73"><g clip-path="url(#X)" opacity=".74"><path fill="#de5967" d="M332.918 74.313c0 4.327 3.508 7.835 7.835 7.835 4.326 0 7.834-3.508 7.834-7.835s-3.508-7.835-7.834-7.835c-4.327 0-7.835 3.508-7.835 7.835"/></g><g clip-path="url(#Y)" opacity=".74"><path fill="#de5967" d="M332.918 74.313c0 4.327 3.508 7.835 7.835 7.835 4.326 0 7.834-3.508 7.834-7.835s-3.508-7.835-7.834-7.835c-4.327 0-7.835 3.508-7.835 7.835"/></g></g><g clip-path="url(#Z)" opacity=".73"><g clip-path="url(#aa)" opacity=".74"><path fill="#de5967" d="M536.947 69.82c0 4.327 3.508 7.834 7.835 7.834 4.326 0 7.834-3.507 7.834-7.834s-3.508-7.835-7.834-7.835c-4.327 0-7.835 3.508-7.835 7.835"/></g><g clip-path="url(#ab)" opacity=".74"><path fill="#de5967" d="M536.947 69.82c0 4.327 3.508 7.834 7.835 7.834 4.326 0 7.834-3.507 7.834-7.834s-3.508-7.835-7.834-7.835c-4.327 0-7.835 3.508-7.835 7.835"/></g></g><g clip-path="url(#ac)" opacity=".73"><g clip-path="url(#ad)" opacity=".74"><path fill="#de5967" d="M698.002 67.18c0 4.328 3.508 7.836 7.835 7.836 4.326 0 7.834-3.508 7.834-7.835 0-4.32-3.5-7.83-7.83-7.83-4.32 0-7.83 3.51-7.83 7.84"/></g><g clip-path="url(#ae)" opacity=".74"><path fill="#de5967" d="M698.002 67.18c0 4.328 3.508 7.836 7.835 7.836 4.326 0 7.834-3.508 7.834-7.835 0-4.32-3.5-7.83-7.83-7.83-4.32 0-7.83 3.51-7.83 7.84"/></g></g><g clip-path="url(#af)" opacity=".73"><g clip-path="url(#ag)" opacity=".74"><path fill="#de5967" d="M192.134 60.744c0 4.327 3.508 7.835 7.835 7.835 4.32 0 7.83-3.51 7.83-7.84s-3.51-7.84-7.84-7.84-7.84 3.5-7.84 7.83"/></g><g clip-path="url(#ah)" opacity=".74"><path fill="#de5967" d="M192.134 60.744c0 4.327 3.508 7.835 7.835 7.835 4.32 0 7.83-3.51 7.83-7.84s-3.51-7.84-7.84-7.84-7.84 3.5-7.84 7.83"/></g></g><g clip-path="url(#ai)" opacity=".73"><g clip-path="url(#aj)" opacity=".74"><path fill="#de5967" d="M130.53 108.705c0 2.64 2.14 4.78 4.78 4.78s4.782-2.14 4.782-4.78-2.14-4.78-4.78-4.78-4.782 2.14-4.782 4.78"/></g><g clip-path="url(#ak)" opacity=".74"><path fill="#de5967" d="M130.53 108.705c0 2.64 2.14 4.78 4.78 4.78s4.782-2.14 4.782-4.78-2.14-4.78-4.78-4.78-4.782 2.14-4.782 4.78"/></g></g><g clip-path="url(#al)" opacity=".73"><g clip-path="url(#am)" opacity=".74"><path fill="#de5967" d="M59.34 183.66v-8.428c2.292.043 4.138 1.91 4.138 4.213s-1.846 4.17-4.138 4.214"/></g><g clip-path="url(#an)" opacity=".74"><path fill="#de5967" d="M59.34 183.66v-8.428c2.292.043 4.138 1.91 4.138 4.213s-1.846 4.17-4.138 4.214"/></g></g><g clip-path="url(#ao)" opacity=".73"><g clip-path="url(#ap)" opacity=".74"><path fill="#de5967" d="M58.752 89.227c-.296 0-.585-.023-.87-.06V75.554c.285-.037.574-.06.87-.06 3.792 0 6.867 3.074 6.867 6.866 0 3.793-3.08 6.867-6.87 6.867"/></g><g clip-path="url(#aq)" opacity=".74"><path fill="#de5967" d="M58.752 89.227c-.296 0-.585-.023-.87-.06V75.554c.285-.037.574-.06.87-.06 3.792 0 6.867 3.074 6.867 6.866 0 3.793-3.08 6.867-6.87 6.867"/></g></g><g clip-path="url(#ar)" opacity=".73"><g clip-path="url(#as)" opacity=".74"><path fill="#de5967" d="M285.427 86.782c0 2.973 2.41 5.383 5.383 5.383 2.972 0 5.382-2.41 5.382-5.383s-2.41-5.382-5.382-5.382c-2.973 0-5.383 2.41-5.383 5.382"/></g><g clip-path="url(#at)" opacity=".74"><path fill="#de5967" d="M285.427 86.782c0 2.973 2.41 5.383 5.383 5.383 2.972 0 5.382-2.41 5.382-5.383s-2.41-5.382-5.382-5.382c-2.973 0-5.383 2.41-5.383 5.382"/></g></g><g clip-path="url(#au)" opacity=".73"><g clip-path="url(#av)" opacity=".74"><path fill="#de5967" d="M392.604 60.753c-.706 5.3-5.233 9.394-10.727 9.394-5.494 0-10.022-4.093-10.727-9.394h21.454z"/></g><g clip-path="url(#aw)" opacity=".74"><path fill="#de5967" d="M392.604 60.753c-.706 5.3-5.233 9.394-10.727 9.394-5.494 0-10.022-4.093-10.727-9.394h21.454z"/></g></g><g clip-path="url(#ax)" opacity=".73"><g clip-path="url(#ay)" opacity=".74"><path fill="#de5967" d="M583.763 75.066c0 3.07 2.49 5.56 5.56 5.56 3.07 0 5.558-2.49 5.558-5.56 0-3.07-2.48-5.56-5.55-5.56s-5.56 2.49-5.56 5.56"/></g><g clip-path="url(#az)" opacity=".74"><path fill="#de5967" d="M583.763 75.066c0 3.07 2.49 5.56 5.56 5.56 3.07 0 5.558-2.49 5.558-5.56 0-3.07-2.48-5.56-5.55-5.56s-5.56 2.49-5.56 5.56"/></g></g><g clip-path="url(#aA)" opacity=".74"><path fill="#de5967" d="M664.02 79.323c0 3.284 2.662 5.946 5.946 5.946 3.283 0 5.945-2.67 5.945-5.95 0-3.29-2.66-5.95-5.94-5.95s-5.94 2.66-5.94 5.94"/></g><g clip-path="url(#aB)" opacity=".73"><g clip-path="url(#aC)" opacity=".74"><path fill="#de5967" d="M662.51 157.37c0 5.982 4.85 10.833 10.835 10.833 5.983 0 10.833-4.85 10.833-10.834s-4.85-10.84-10.833-10.84c-5.984 0-10.834 4.85-10.834 10.83"/></g><g clip-path="url(#aD)" opacity=".74"><path fill="#de5967" d="M662.51 157.37c0 5.982 4.85 10.833 10.835 10.833 5.983 0 10.833-4.85 10.833-10.834s-4.85-10.84-10.833-10.84c-5.984 0-10.834 4.85-10.834 10.83"/></g></g><g clip-path="url(#aE)" opacity=".73"><g clip-path="url(#aF)" opacity=".74"><path fill="#de5967" d="M736.41 158.646c-.287.023-.577.044-.87.044-5.984 0-10.835-4.85-10.835-10.834 0-5.983 4.85-10.833 10.834-10.833.29 0 .58.02.87.044v21.58z"/></g><g clip-path="url(#aG)" opacity=".74"><path fill="#de5967" d="M736.41 158.646c-.287.023-.577.044-.87.044-5.984 0-10.835-4.85-10.835-10.834 0-5.983 4.85-10.833 10.834-10.833.29 0 .58.02.87.044v21.58z"/></g></g><g clip-path="url(#aH)" opacity=".74"><path fill="#de5967" d="M100.613 176.748c0 2.148 1.74 3.89 3.89 3.89 2.147 0 3.89-1.742 3.89-3.89s-1.743-3.89-3.89-3.89c-2.15 0-3.89 1.742-3.89 3.89"/></g><g clip-path="url(#aI)" opacity=".74"><path fill="#de5967" d="M342.166 93.754c0 2.148 1.74 3.89 3.89 3.89 2.147 0 3.89-1.742 3.89-3.89-.002-2.148-1.744-3.89-3.892-3.89-2.147 0-3.888 1.742-3.888 3.89"/></g><g clip-path="url(#aJ)" opacity=".74"><path fill="#de5967" d="M517.91 60.753h3.415c1.288.634 2.182 1.946 2.182 3.48 0 2.147-1.74 3.888-3.89 3.888-2.147 0-3.888-1.74-3.888-3.88 0-1.53.89-2.84 2.18-3.48"/></g><g clip-path="url(#aK)" opacity=".74"><path fill="#de5967" d="M593.95 96.72c0 2.147 1.74 3.888 3.89 3.888 2.147 0 3.89-1.74 3.89-3.89 0-2.147-1.743-3.888-3.89-3.888-2.15 0-3.89 1.74-3.89 3.89"/></g><g clip-path="url(#aL)" opacity=".74"><path fill="#de5967" d="M627.843 108.834c0 2.148 1.74 3.89 3.89 3.89 2.147 0 3.89-1.742 3.89-3.89s-1.743-3.89-3.89-3.89c-2.15 0-3.89 1.742-3.89 3.89"/></g><g clip-path="url(#aM)" opacity=".74"><path fill="#de5967" d="M115.724 152.972c0 2.148 1.74 3.89 3.89 3.89 2.147 0 3.89-1.742 3.89-3.89s-1.743-3.89-3.89-3.89c-2.15 0-3.89 1.742-3.89 3.89"/></g><g clip-path="url(#aN)" opacity=".74"><path fill="#de5967" d="M170.814 136.31c0 2.15 1.74 3.89 3.89 3.89 2.147 0 3.89-1.74 3.89-3.89 0-2.147-1.743-3.888-3.89-3.888-2.15 0-3.89 1.74-3.89 3.89"/></g><g clip-path="url(#aO)" opacity=".74"><path fill="#de5967" d="M91.858 91.496c0 2.148 1.74 3.89 3.89 3.89 2.147 0 3.89-1.742 3.89-3.89s-1.743-3.89-3.89-3.89c-2.15 0-3.89 1.742-3.89 3.89"/></g><g clip-path="url(#aP)" opacity=".73"><g clip-path="url(#aQ)" opacity=".74"><path fill="#de5967" d="M472.808 78.063c0 3.88 3.145 7.024 7.024 7.024 3.88 0 7.024-3.145 7.024-7.024 0-3.88-3.145-7.024-7.024-7.024-3.88 0-7.024 3.14-7.024 7.02"/></g><g clip-path="url(#aR)" opacity=".74"><path fill="#de5967" d="M472.808 78.063c0 3.88 3.145 7.024 7.024 7.024 3.88 0 7.024-3.145 7.024-7.024 0-3.88-3.145-7.024-7.024-7.024-3.88 0-7.024 3.14-7.024 7.02"/></g></g><g clip-path="url(#aS)" opacity=".73"><g clip-path="url(#aT)" opacity=".74"><path fill="#de5967" d="M396.473 113.052c0 3.878 3.145 7.023 7.024 7.023 3.88 0 7.024-3.144 7.024-7.023 0-3.88-3.14-7.025-7.02-7.025-3.88 0-7.02 3.146-7.02 7.025"/></g><g clip-path="url(#aU)" opacity=".74"><path fill="#de5967" d="M396.473 113.052c0 3.878 3.145 7.023 7.024 7.023 3.88 0 7.024-3.144 7.024-7.023 0-3.88-3.14-7.025-7.02-7.025-3.88 0-7.02 3.146-7.02 7.025"/></g></g><g clip-path="url(#aV)" opacity=".73"><g clip-path="url(#aW)" opacity=".74"><path fill="#de5967" d="M600.338 122.72c0 3.878 3.145 7.023 7.024 7.023 3.88 0 7.024-3.145 7.024-7.024 0-3.88-3.145-7.03-7.024-7.03-3.88 0-7.024 3.14-7.024 7.02"/></g><g clip-path="url(#aX)" opacity=".74"><path fill="#de5967" d="M600.338 122.72c0 3.878 3.145 7.023 7.024 7.023 3.88 0 7.024-3.145 7.024-7.024 0-3.88-3.145-7.03-7.024-7.03-3.88 0-7.024 3.14-7.024 7.02"/></g></g><g clip-path="url(#aY)" opacity=".73"><g clip-path="url(#aZ)" opacity=".74"><path fill="#de5967" d="M680.015 122.72c0 3.878 3.145 7.023 7.024 7.023 3.87 0 7.02-3.145 7.02-7.024 0-3.88-3.15-7.03-7.03-7.03-3.88 0-7.03 3.14-7.03 7.02"/></g><g clip-path="url(#ba)" opacity=".74"><path fill="#de5967" d="M680.015 122.72c0 3.878 3.145 7.023 7.024 7.023 3.87 0 7.02-3.145 7.02-7.024 0-3.88-3.15-7.03-7.03-7.03-3.88 0-7.03 3.14-7.03 7.02"/></g></g><g clip-path="url(#bb)" opacity=".73"><g clip-path="url(#bc)" opacity=".74"><path fill="#de5967" d="M715.7 110.35c0 3.88 3.146 7.024 7.025 7.024 3.88 0 7.024-3.145 7.024-7.024 0-3.88-3.15-7.024-7.03-7.024-3.88 0-7.03 3.145-7.03 7.024"/></g><g clip-path="url(#bd)" opacity=".74"><path fill="#de5967" d="M715.7 110.35c0 3.88 3.146 7.024 7.025 7.024 3.88 0 7.024-3.145 7.024-7.024 0-3.88-3.15-7.024-7.03-7.024-3.88 0-7.03 3.145-7.03 7.024"/></g></g><g clip-path="url(#be)" opacity=".73"><g clip-path="url(#bf)" opacity=".74"><path fill="#de5967" d="M396.22 75.942c0 2.76 2.237 5 4.998 5 2.76 0 5-2.24 5-5s-2.24-5-5-5-5 2.24-5 5"/></g><g clip-path="url(#bg)" opacity=".74"><path fill="#de5967" d="M396.22 75.942c0 2.76 2.237 5 4.998 5 2.76 0 5-2.24 5-5s-2.24-5-5-5-5 2.24-5 5"/></g></g><g clip-path="url(#bh)" opacity=".73"><g clip-path="url(#bi)" opacity=".74"><path fill="#de5967" d="M193.35 108.834c0 3.88 3.144 7.024 7.023 7.024 3.88 0 7.024-3.145 7.024-7.024 0-3.88-3.145-7.024-7.024-7.024-3.88 0-7.024 3.145-7.024 7.024"/></g><g clip-path="url(#bj)" opacity=".74"><path fill="#de5967" d="M193.35 108.834c0 3.88 3.144 7.024 7.023 7.024 3.88 0 7.024-3.145 7.024-7.024 0-3.88-3.145-7.024-7.024-7.024-3.88 0-7.024 3.145-7.024 7.024"/></g></g><g clip-path="url(#bk)" opacity=".73"><g clip-path="url(#bl)" opacity=".74"><path fill="#de5967" d="M65.108 153.56c-1.815 0-3.452-.708-4.7-1.837v-10.375c1.248-1.13 2.885-1.837 4.7-1.837 3.88 0 7.024 3.15 7.024 7.03 0 3.88-3.145 7.03-7.024 7.03"/></g><g clip-path="url(#bm)" opacity=".74"><path fill="#de5967" d="M65.108 153.56c-1.815 0-3.452-.708-4.7-1.837v-10.375c1.248-1.13 2.885-1.837 4.7-1.837 3.88 0 7.024 3.15 7.024 7.03 0 3.88-3.145 7.03-7.024 7.03"/></g></g><g clip-path="url(#bn)" opacity=".73"><g clip-path="url(#bo)" opacity=".74"><path fill="#de5967" d="M125.136 60.753c.154.578.263 1.175.263 1.802 0 3.88-3.15 7.024-7.03 7.024-3.88 0-7.03-3.15-7.03-7.03 0-.63.11-1.23.26-1.8h13.52z"/></g><g clip-path="url(#bp)" opacity=".74"><path fill="#de5967" d="M125.136 60.753c.154.578.263 1.175.263 1.802 0 3.88-3.15 7.024-7.03 7.024-3.88 0-7.03-3.15-7.03-7.03 0-.63.11-1.23.26-1.8h13.52z"/></g></g><g clip-path="url(#bq)" opacity=".03"><path fill="#be7077" d="M143.885 38.365l-7.13 12.238-2.15-1.254 6.4-10.99h2.88zm-36.588 71.738l.028 2.49 63.986-.71-.02-2.49-63.98.71z"/><path fill="#be7077" d="M60.41 156.63v-3.398l46.054-42.796 1.694 1.824-47.75 44.37zm0 8.622l16.273 12.887-1.546 1.95-14.727-11.67v-3.18zM79.8 38.365l28.668 72.527-2.315.913-29.03-73.44H79.8zm56.954 10.98l-2.147 1.26 35.616 60.662 2.148-1.26-35.61-60.662zm-35.3-10.98l70.728 71.396-1.77 1.76L97.95 38.37h3.5zm69.996 0l9.703 5.492-.818 1.445-12.256-6.937h3.37z"/><path fill="#be7077" d="M180.004 38.365l1.544 6.01-1.608.41-1.65-6.42h1.714zm-88.18 0L97.606 56.5l-1.58.505-5.946-18.64h1.744z"/><path fill="#be7077" d="M92.852 56.67l.288 1.634 42.684-7.51-.288-1.635-42.684 7.51zm45.1-18.305l-1.45 11.714-1.645-.21 1.424-11.51h1.68zm-77.542 1.43l36.74 16.198-.67 1.518-36.07-15.9V39.8z"/><path fill="#be7077" d="M96.188 56.21L65.882 91.33l1.256 1.085 30.306-35.123-1.257-1.085z"/><path fill="#be7077" d="M67.29 91.588l-1.558.573 23.056 62.56 1.557-.57L67.29 91.59zm77.71 44.19l-55.687 17.857.507 1.58 55.688-17.858-.507-1.58z"/><path fill="#be7077" d="M145.285 135.74l-.06 1.658 79.605 2.883.06-1.65-79.605-2.88zm-9.015-86.35l-1.177 1.17 89.18 89.476 1.175-1.17-89.18-89.475zm-75.86 58.03v-3.472l5.942-10.925 1.457.793-7.4 13.605zm121.086-63.19l-1.505.698 44.12 94.872 1.51-.698L181.5 44.23zm-83.97 12.092l-1.42.86 48.44 79.816 1.417-.86-48.438-79.816z"/><path fill="#be7077" d="M171.316 109.807l-.038 1.66 203.12 4.57.037-1.658-203.12-4.58zm162.63-58.417l.027 2.49 63.986-.712-.03-2.49-63.99.71z"/><path fill="#be7077" d="M333.112 51.722l-53.82 50.012 1.693 1.823 53.82-50.012-1.693-1.823z"/><path fill="#be7077" d="M280.91 101.67l-1.545 1.952 22.42 17.753 1.546-1.95-22.42-17.755z"/><path fill="#be7077" d="M279.457 101.603l-56.973 37.194 1.36 2.085 56.974-37.194-1.36-2.085zm-13.803-63.238l15.693 63.984-2.418.59-15.84-64.58h2.56zm64.003 0l5.46 13.812-2.315.914-5.82-14.72h2.675zm61.773 0l7.59 12.927-2.148 1.26-8.33-14.187h2.887z"/><path fill="#be7077" d="M386.267 38.365l12.563 12.682-1.77 1.752-14.298-14.44h3.505zm-90.307 0l21.033 57.06-1.557.573-21.243-57.633h1.768z"/><path fill="#be7077" d="M371.65 77.064L315.96 94.92l.508 1.58 55.688-17.857-.507-1.58z"/><path fill="#be7077" d="M371.933 77.024l-.06 1.66 79.605 2.882.06-1.66-79.605-2.882z"/><path fill="#be7077" d="M410.447 38.365l41.65 41.787-1.177 1.17-42.815-42.957h2.342zm-185.432 0l39.114 51.472-1.33 1.004-39.88-52.47H225z"/><path fill="#be7077" d="M292.683 38.365l-28.486 52.37-1.458-.792 28.05-51.578h1.89zm140.037 0l19.54 42.023-1.504.698-19.865-42.72h1.83zm-83.812 0l23.704 39.06-1.42.86-24.225-39.92h1.94z"/><path fill="#be7077" d="M397.964 51.092l-.038 1.66 203.12 4.57.037-1.658-203.12-4.572z"/><path fill="#be7077" d="M445.11 38.365l24.898 13.75-1.204 2.18-28.844-15.93h5.15zm-94.138 0l-8.78 2.084-.493-2.09h9.27z"/><path fill="#be7077" d="M343.06 38.77l-2.308.935 10.75 26.502 2.307-.935-10.75-26.502z"/><path fill="#be7077" d="M341.85 38.365l.134 2.116-67.906 4.27-.156-2.48 62.02-3.89h5.91zm128.575 0l.226 14.82-2.49.038-.22-14.858h2.49z"/><path fill="#be7077" d="M466.67 38.365l3.938 14.512-2.403.653-4.116-15.165h2.58zm-87.048 0L377.53 51.13l-1.638-.27 2.05-12.495h1.68z"/><path fill="#be7077" d="M434.132 62.108L376.88 50.183l-.338 1.623 57.252 11.926.338-1.624zm.266.106l-.87 1.413 67.83 41.763.872-1.413-67.832-41.763zm50.04-23.85l18.156 66.1-1.6.438-18.277-66.537h1.72z"/><path fill="#be7077" d="M507.97 38.365l-5.35 66.385-1.652-.134 5.34-66.25h1.663zm-73.91 0l.732 24.53-1.66.05-.73-24.58h1.66z"/><path fill="#be7077" d="M469.832 52.49l-.85 1.425 174.45 104.14.852-1.426L469.832 52.49zm236.005-14.125l-10.748 6.263-1.26-2.15 7.05-4.113h4.94zm-65.717 43.5l-1.203 2.18 56.016 30.933 1.203-2.18-56.016-30.934z"/><path fill="#be7077" d="M639.23 81.744l-71.483 16.97.574 2.42 71.49-16.97-.57-2.42z"/><path fill="#be7077" d="M569.188 99.456l-2.307.935 10.75 26.51 2.31-.93-10.75-26.5zm-1.232-.776l-67.906 4.263.157 2.485 67.905-4.263-.156-2.485z"/><path fill="#be7077" d="M586.706 38.365l-17.474 61.896-2.396-.67 17.283-61.22h2.58zm60.318 0l-6.273 44.763-2.46-.347 6.23-44.41h2.52zm48.684 5.168l-2.49.038 1.072 70.34 2.49-.04-1.072-70.33z"/><path fill="#be7077" d="M676.327 38.365l20.41 75.197-2.404.653-20.586-75.85h2.58zM736.41 61.03l-.795.476-13.875-23.14h1.936l12.735 21.24v1.423zm-54.065-22.665l12.395 4.406-.556 1.57-16.795-5.97h4.95zm17.003 0l-4.22 5.683-1.332-.99 3.485-4.693h2.07zm-62.188 0l-23.255 8.31-.558-1.563 18.88-6.747h4.934z"/><path fill="#be7077" d="M614.445 46.028l-1.637-.27-10.787 65.787 1.64.27 10.79-65.787z"/><path fill="#be7077" d="M660.26 122.793l-57.252-11.925-.338 1.623 57.252 11.93.338-1.62zm.267.107l-.87 1.412 67.83 41.763.872-1.413-67.84-41.762zm34.736-79.567l-1.6.438 33.46 121.82 1.6-.44-33.46-121.81zm-140.578-4.968l5.738 42.52-1.645.222-5.768-42.742h1.675z"/><path fill="#be7077" d="M612.922 46.815l-53.76 33.476.878 1.41 53.76-33.47-.878-1.4zm123.488 23.55l-7.66 95.07-1.654-.134L735.5 61.02l.91.074v9.278zm-78.028-32l2.54 85.216-1.66.05-2.54-85.26h1.66z"/><path fill="#be7077" d="M736.41 139.256l-41.3-24.655.85-1.42 40.45 24.15v1.94z"/><g clip-path="url(#br)" opacity=".73"><g clip-path="url(#bs)" opacity=".74"><path fill="#de5967" d="M211.96 138.01c0 5.983 4.85 10.834 10.833 10.834 5.983 0 10.833-4.85 10.833-10.834 0-5.983-4.85-10.834-10.833-10.834-5.984 0-10.834 4.85-10.834 10.833"/></g><g clip-path="url(#bt)" opacity=".74"><path fill="#de5967" d="M211.96 138.01c0 5.983 4.85 10.834 10.833 10.834 5.983 0 10.833-4.85 10.833-10.834 0-5.983-4.85-10.834-10.833-10.834-5.984 0-10.834 4.85-10.834 10.833"/></g></g><g clip-path="url(#bu)" opacity=".73"><g clip-path="url(#bv)" opacity=".74"><path fill="#de5967" d="M290.81 120.446c0 5.983 4.85 10.834 10.833 10.834 5.983 0 10.833-4.85 10.833-10.834 0-5.983-4.85-10.834-10.833-10.834-5.984 0-10.834 4.85-10.834 10.834"/></g><g clip-path="url(#bw)" opacity=".74"><path fill="#de5967" d="M290.81 120.446c0 5.983 4.85 10.834 10.833 10.834 5.983 0 10.833-4.85 10.833-10.834 0-5.983-4.85-10.834-10.833-10.834-5.984 0-10.834 4.85-10.834 10.834"/></g></g><g clip-path="url(#bx)" opacity=".73"><g clip-path="url(#by)" opacity=".74"><path fill="#de5967" d="M489.217 102.054c0 5.983 4.85 10.834 10.834 10.834s10.84-4.85 10.84-10.834c0-5.983-4.85-10.834-10.83-10.834s-10.83 4.85-10.83 10.834"/></g><g clip-path="url(#bz)" opacity=".74"><path fill="#de5967" d="M489.217 102.054c0 5.983 4.85 10.834 10.834 10.834s10.84-4.85 10.84-10.834c0-5.983-4.85-10.834-10.83-10.834s-10.83 4.85-10.83 10.834"/></g></g><g clip-path="url(#bA)" opacity=".73"><g clip-path="url(#bB)" opacity=".74"><path fill="#de5967" d="M95.416 110.403c0 5.983 4.85 10.834 10.834 10.834 5.983 0 10.833-4.85 10.833-10.834 0-5.983-4.85-10.834-10.833-10.834-5.984 0-10.834 4.85-10.834 10.83"/></g><g clip-path="url(#bC)" opacity=".74"><path fill="#de5967" d="M95.416 110.403c0 5.983 4.85 10.834 10.834 10.834 5.983 0 10.833-4.85 10.833-10.834 0-5.983-4.85-10.834-10.833-10.834-5.984 0-10.834 4.85-10.834 10.83"/></g></g><g clip-path="url(#bD)" opacity=".73"><g clip-path="url(#bE)" opacity=".74"><path fill="#de5967" d="M249.92 89.304c0 5.983 4.85 10.834 10.834 10.834 5.983 0 10.833-4.85 10.833-10.834 0-5.983-4.85-10.834-10.833-10.834-5.984 0-10.834 4.85-10.834 10.834"/></g><g clip-path="url(#bF)" opacity=".74"><path fill="#de5967" d="M249.92 89.304c0 5.983 4.85 10.834 10.834 10.834 5.983 0 10.833-4.85 10.833-10.834 0-5.983-4.85-10.834-10.833-10.834-5.984 0-10.834 4.85-10.834 10.834"/></g></g><g clip-path="url(#bG)" opacity=".73"><g clip-path="url(#bH)" opacity=".74"><path fill="#de5967" d="M341.98 61.012c0 5.983 4.85 10.834 10.835 10.834 5.983 0 10.833-4.85 10.833-10.834 0-5.983-4.85-10.834-10.833-10.834-5.984 0-10.834 4.85-10.834 10.834"/></g><g clip-path="url(#bI)" opacity=".74"><path fill="#de5967" d="M341.98 61.012c0 5.983 4.85 10.834 10.835 10.834 5.983 0 10.833-4.85 10.833-10.834 0-5.983-4.85-10.834-10.833-10.834-5.984 0-10.834 4.85-10.834 10.834"/></g></g><g clip-path="url(#bJ)" opacity=".73"><g clip-path="url(#bK)" opacity=".74"><path fill="#de5967" d="M549.427 76.764c0 5.983 4.85 10.834 10.834 10.834s10.84-4.85 10.84-10.834c0-5.983-4.85-10.834-10.83-10.834s-10.83 4.85-10.83 10.834"/></g><g clip-path="url(#bL)" opacity=".74"><path fill="#de5967" d="M549.427 76.764c0 5.983 4.85 10.834 10.834 10.834s10.84-4.85 10.84-10.834c0-5.983-4.85-10.834-10.83-10.834s-10.83 4.85-10.83 10.834"/></g></g><g clip-path="url(#bM)" opacity=".73"><g clip-path="url(#bN)" opacity=".74"><path fill="#de5967" d="M630.07 81.02c0 5.984 4.85 10.835 10.834 10.835 5.983 0 10.833-4.85 10.833-10.834 0-5.98-4.85-10.83-10.833-10.83-5.984 0-10.834 4.85-10.834 10.84"/></g><g clip-path="url(#bO)" opacity=".74"><path fill="#de5967" d="M630.07 81.02c0 5.984 4.85 10.835 10.834 10.835 5.983 0 10.833-4.85 10.833-10.834 0-5.98-4.85-10.83-10.833-10.83-5.984 0-10.834 4.85-10.834 10.84"/></g></g><g clip-path="url(#bP)" opacity=".73"><g clip-path="url(#bQ)" opacity=".74"><path fill="#de5967" d="M633.45 159.067c0 5.983 4.85 10.834 10.833 10.834 5.983 0 10.833-4.85 10.833-10.83s-4.85-10.83-10.833-10.83c-5.984 0-10.834 4.85-10.834 10.84"/></g><g clip-path="url(#bR)" opacity=".74"><path fill="#de5967" d="M633.45 159.067c0 5.983 4.85 10.834 10.833 10.834 5.983 0 10.833-4.85 10.833-10.83s-4.85-10.83-10.833-10.83c-5.984 0-10.834 4.85-10.834 10.84"/></g></g><g clip-path="url(#bS)" opacity=".73"><g clip-path="url(#bT)" opacity=".74"><path fill="#de5967" d="M695.644 149.555c0 5.983 4.85 10.834 10.834 10.834 5.983 0 10.833-4.86 10.833-10.84s-4.85-10.84-10.83-10.84-10.83 4.85-10.83 10.83"/></g><g clip-path="url(#bU)" opacity=".74"><path fill="#de5967" d="M695.644 149.555c0 5.983 4.85 10.834 10.834 10.834 5.983 0 10.833-4.86 10.833-10.84s-4.85-10.84-10.83-10.84-10.83 4.85-10.83 10.83"/></g></g><g clip-path="url(#bV)" opacity=".74"><path fill="#de5967" d="M71.55 178.446c0 2.148 1.742 3.89 3.89 3.89s3.89-1.742 3.89-3.89-1.742-3.89-3.89-3.89-3.89 1.742-3.89 3.89"/></g><g clip-path="url(#bW)" opacity=".74"><path fill="#de5967" d="M313.103 95.453c0 2.148 1.74 3.89 3.89 3.89 2.148 0 3.89-1.742 3.89-3.89s-1.742-3.89-3.89-3.89-3.89 1.742-3.89 3.89"/></g><g clip-path="url(#bX)" opacity=".74"><path fill="#de5967" d="M486.667 65.93c0 2.148 1.74 3.89 3.89 3.89 2.147 0 3.89-1.742 3.89-3.89s-1.743-3.89-3.89-3.89c-2.15 0-3.89 1.742-3.89 3.89"/></g><g clip-path="url(#bY)" opacity=".74"><path fill="#de5967" d="M564.888 98.418c0 2.147 1.74 3.888 3.89 3.888 2.147 0 3.89-1.74 3.89-3.888 0-2.15-1.743-3.89-3.89-3.89-2.15 0-3.89 1.742-3.89 3.89"/></g><g clip-path="url(#bZ)" opacity=".74"><path fill="#de5967" d="M598.78 110.533c0 2.148 1.742 3.89 3.89 3.89s3.89-1.742 3.89-3.89-1.742-3.89-3.89-3.89-3.89 1.742-3.89 3.89"/></g><g clip-path="url(#ca)" opacity=".74"><path fill="#de5967" d="M86.662 154.67c0 2.148 1.74 3.89 3.89 3.89 2.147 0 3.89-1.742 3.89-3.89s-1.743-3.89-3.89-3.89c-2.15 0-3.89 1.742-3.89 3.89"/></g><g clip-path="url(#cb)" opacity=".74"><path fill="#de5967" d="M141.752 138.01c0 2.148 1.74 3.89 3.89 3.89 2.147 0 3.89-1.742 3.89-3.89s-1.743-3.89-3.89-3.89c-2.15 0-3.89 1.74-3.89 3.89"/></g><g clip-path="url(#cc)" opacity=".74"><path fill="#de5967" d="M62.796 93.194c0 2.148 1.74 3.89 3.89 3.89 2.147 0 3.89-1.742 3.89-3.89s-1.743-3.89-3.89-3.89c-2.15 0-3.89 1.742-3.89 3.89"/></g><g clip-path="url(#cd)" opacity=".73"><g clip-path="url(#ce)" opacity=".74"><path fill="#de5967" d="M443.745 79.76c0 3.88 3.145 7.025 7.024 7.025 3.88 0 7.02-3.144 7.02-7.023 0-3.88-3.15-7.025-7.03-7.025-3.88 0-7.03 3.146-7.03 7.025"/></g><g clip-path="url(#cf)" opacity=".74"><path fill="#de5967" d="M443.745 79.76c0 3.88 3.145 7.025 7.024 7.025 3.88 0 7.02-3.144 7.02-7.023 0-3.88-3.15-7.025-7.03-7.025-3.88 0-7.03 3.146-7.03 7.025"/></g></g><g clip-path="url(#cg)" opacity=".73"><g clip-path="url(#ch)" opacity=".74"><path fill="#de5967" d="M367.41 114.75c0 3.88 3.146 7.024 7.025 7.024 3.88 0 7.024-3.145 7.024-7.024 0-3.88-3.15-7.024-7.03-7.024-3.88 0-7.03 3.145-7.03 7.024"/></g><g clip-path="url(#ci)" opacity=".74"><path fill="#de5967" d="M367.41 114.75c0 3.88 3.146 7.024 7.025 7.024 3.88 0 7.024-3.145 7.024-7.024 0-3.88-3.15-7.024-7.03-7.024-3.88 0-7.03 3.145-7.03 7.024"/></g></g><g clip-path="url(#cj)" opacity=".73"><g clip-path="url(#ck)" opacity=".74"><path fill="#de5967" d="M571.276 124.417c0 3.88 3.145 7.024 7.024 7.024 3.88 0 7.024-3.14 7.024-7.02 0-3.88-3.145-7.02-7.024-7.02-3.88 0-7.024 3.15-7.024 7.03"/></g><g clip-path="url(#cl)" opacity=".74"><path fill="#de5967" d="M571.276 124.417c0 3.88 3.145 7.024 7.024 7.024 3.88 0 7.024-3.14 7.024-7.02 0-3.88-3.145-7.02-7.024-7.02-3.88 0-7.024 3.15-7.024 7.03"/></g></g><g clip-path="url(#cm)" opacity=".73"><g clip-path="url(#cn)" opacity=".74"><path fill="#de5967" d="M650.953 124.417c0 3.88 3.145 7.024 7.024 7.024 3.88 0 7.024-3.14 7.024-7.02 0-3.88-3.14-7.02-7.02-7.02-3.88 0-7.02 3.15-7.02 7.03"/></g><g clip-path="url(#co)" opacity=".74"><path fill="#de5967" d="M650.953 124.417c0 3.88 3.145 7.024 7.024 7.024 3.88 0 7.024-3.14 7.024-7.02 0-3.88-3.14-7.02-7.02-7.02-3.88 0-7.02 3.15-7.02 7.03"/></g></g><g clip-path="url(#cp)" opacity=".73"><g clip-path="url(#cq)" opacity=".74"><path fill="#de5967" d="M686.64 112.048c0 3.88 3.144 7.024 7.023 7.024 3.88 0 7.024-3.145 7.024-7.024 0-3.88-3.145-7.024-7.024-7.024-3.88 0-7.024 3.145-7.024 7.024"/></g><g clip-path="url(#cr)" opacity=".74"><path fill="#de5967" d="M686.64 112.048c0 3.88 3.144 7.024 7.023 7.024 3.88 0 7.024-3.145 7.024-7.024 0-3.88-3.145-7.024-7.024-7.024-3.88 0-7.024 3.145-7.024 7.024"/></g></g><g clip-path="url(#cs)" opacity=".73"><g clip-path="url(#ct)" opacity=".74"><path fill="#de5967" d="M365.132 77.64c0 3.88 3.145 7.024 7.024 7.024 3.88 0 7.024-3.145 7.024-7.024 0-3.88-3.145-7.024-7.024-7.024-3.88 0-7.024 3.145-7.024 7.024"/></g><g clip-path="url(#cu)" opacity=".74"><path fill="#de5967" d="M365.132 77.64c0 3.88 3.145 7.024 7.024 7.024 3.88 0 7.024-3.145 7.024-7.024 0-3.88-3.145-7.024-7.024-7.024-3.88 0-7.024 3.145-7.024 7.024"/></g></g><g clip-path="url(#cv)" opacity=".73"><g clip-path="url(#cw)" opacity=".74"><path fill="#de5967" d="M164.287 110.533c0 3.88 3.145 7.024 7.024 7.024 3.88 0 7.03-3.145 7.03-7.024 0-3.88-3.14-7.024-7.02-7.024-3.88 0-7.02 3.14-7.02 7.02"/></g><g clip-path="url(#cx)" opacity=".74"><path fill="#de5967" d="M164.287 110.533c0 3.88 3.145 7.024 7.024 7.024 3.88 0 7.03-3.145 7.03-7.024 0-3.88-3.14-7.024-7.02-7.024-3.88 0-7.02 3.14-7.02 7.02"/></g></g><g clip-path="url(#cy)" opacity=".73"><g clip-path="url(#cz)" opacity=".74"><path fill="#de5967" d="M82.29 64.254c0 3.88 3.144 7.024 7.023 7.024 3.88 0 7.024-3.145 7.024-7.024 0-3.88-3.145-7.024-7.024-7.024-3.88 0-7.024 3.145-7.024 7.024"/></g><g clip-path="url(#cA)" opacity=".74"><path fill="#de5967" d="M82.29 64.254c0 3.88 3.144 7.024 7.023 7.024 3.88 0 7.024-3.145 7.024-7.024 0-3.88-3.145-7.024-7.024-7.024-3.88 0-7.024 3.145-7.024 7.024"/></g></g></g></g></svg>
